<svg version="1.1" id="Layer_1" xmlns="http://www.w3.org/2000/svg" xmlns:xlink="http://www.w3.org/1999/xlink" x="0px" y="0px"
	 width="50%" viewBox="0 0 1024 1024" enable-background="new 0 0 1024 1024" xml:space="preserve">
<path fill="#000000" opacity="1.000000" stroke="none" 
	d="
M873.717285,508.350525 
	C874.554077,510.212646 875.522156,511.679840 875.817261,513.271790 
	C876.562500,517.291992 879.073303,519.139160 882.809265,520.106689 
	C888.559631,521.595825 894.736450,522.509216 896.370850,529.928467 
	C897.592957,535.476135 902.301636,540.179688 900.378479,546.513000 
	C900.239746,546.969727 900.332031,547.508789 900.370789,548.005371 
	C900.632202,551.354858 899.541443,555.369873 904.226196,556.680359 
	C907.225952,557.519592 912.196777,554.195374 914.063965,550.365906 
	C916.605042,545.154602 916.514099,538.501648 922.838684,534.938232 
	C921.817688,543.078308 929.216614,544.510925 933.515137,548.308777 
	C938.093933,552.354248 943.375305,555.596252 948.267700,559.297668 
	C952.133240,562.222290 953.692017,565.785767 951.387329,570.603943 
	C948.852356,575.903503 948.456848,581.846741 946.814880,587.423828 
	C945.172607,593.001953 943.564819,593.616211 938.798584,590.550171 
	C930.964966,585.510925 923.148621,580.444702 915.304871,575.421204 
	C912.823486,573.831970 910.555786,572.145752 907.086609,573.565063 
	C905.602295,574.172302 903.279541,572.865540 901.380432,572.288147 
	C899.136353,571.605713 896.939819,570.756653 894.576050,571.744263 
	C892.971069,572.414795 891.678650,572.116455 890.703796,570.589905 
	C888.153076,566.595459 884.207336,566.912476 880.423401,567.658447 
	C864.851501,570.728394 850.034424,575.853821 835.860413,583.161133 
	C827.870422,587.280396 820.059265,592.378784 810.132263,591.474670 
	C804.983704,591.005737 800.692200,590.235352 797.834656,585.482483 
	C797.028931,584.142456 795.465515,583.257874 794.276367,582.188354 
	C792.689331,583.249084 793.322021,584.442383 793.743774,585.413208 
	C796.352478,591.417847 797.745056,597.743225 798.809753,604.156311 
	C799.217102,606.609802 799.998291,608.141357 802.900330,608.939087 
	C806.509277,609.931091 808.565430,613.306702 810.245239,616.594666 
	C812.800964,621.596985 812.898804,627.276306 811.749756,632.247742 
	C810.457520,637.838501 811.026733,643.170288 811.529114,648.487915 
	C812.847046,662.437073 813.043274,676.269653 811.734741,690.271606 
	C811.194885,696.048157 810.440552,701.747375 809.536560,707.453064 
	C809.167236,709.784241 809.068237,712.113953 809.675415,714.398315 
	C810.571960,717.771667 810.468994,721.006470 808.623047,724.047974 
	C806.718811,727.185730 807.918152,729.164551 811.066040,730.095459 
	C819.380432,732.554504 827.496643,735.518066 835.376465,739.134399 
	C850.999512,746.304321 866.945251,752.856628 880.359436,764.054138 
	C889.331482,771.543335 894.325439,781.276978 896.859741,792.414062 
	C901.609253,813.285095 911.755005,831.838745 921.943787,850.302063 
	C931.139343,866.965576 932.917175,883.640198 924.150818,900.848938 
	C919.185730,910.595642 911.124146,917.596863 902.373291,923.787598 
	C884.152100,936.677856 863.820862,945.803406 843.054993,953.163330 
	C812.638428,963.943604 782.779785,961.960938 755.593567,942.477051 
	C746.222595,935.760925 740.874756,925.989319 735.728943,916.030701 
	C729.176025,903.348877 720.925049,892.131165 709.552429,883.053040 
	C698.268982,874.046082 692.803162,860.964844 687.945984,847.726196 
	C684.778748,839.093567 684.024902,838.770813 675.255615,841.785095 
	C667.243286,844.539307 659.322205,847.559937 651.302795,850.292542 
	C622.262817,860.187683 592.583252,867.483765 562.099182,871.076416 
	C531.501465,874.682312 500.968079,873.929565 470.565674,868.575989 
	C459.768250,866.674500 448.812195,865.665588 438.121277,863.150146 
	C434.368561,862.267212 433.430939,864.141479 432.967651,867.236084 
	C431.438995,877.447632 429.996582,887.778442 424.423462,896.733215 
	C417.555847,907.767944 409.795929,917.806335 398.165253,924.777527 
	C386.904053,931.527344 376.530548,939.888794 369.250916,951.170288 
	C364.751434,958.143250 358.753418,962.887085 351.443451,966.617615 
	C332.303589,976.385315 312.219208,976.882568 291.572052,973.800842 
	C270.801392,970.700623 251.553070,962.939819 232.290466,955.104431 
	C213.646896,947.520874 196.609344,937.196289 181.330460,924.241150 
	C169.400925,914.125854 158.104630,903.185608 152.758026,887.763367 
	C150.161758,880.274231 149.401276,872.718628 150.153839,864.708984 
	C151.566650,849.672180 153.752533,834.670959 151.947800,819.416809 
	C150.414948,806.460571 155.828232,795.270020 163.307648,785.140625 
	C176.164719,767.728149 193.266190,755.139709 211.418976,743.867126 
	C215.201645,741.518188 219.034271,739.223450 223.489151,738.011353 
	C228.612946,736.617188 227.648743,732.465881 226.209564,729.042480 
	C222.960403,721.313660 221.038605,713.240723 219.103531,705.140747 
	C216.388458,693.775757 214.897476,682.343994 214.585419,670.593872 
	C213.989059,648.138245 215.903397,626.047485 221.366669,604.267822 
	C222.095535,601.362122 222.952698,598.483887 223.866821,595.630188 
	C225.938278,589.163513 225.654922,588.630127 219.193130,587.250916 
	C208.783859,585.029358 198.204498,583.798706 187.787659,581.529541 
	C174.309052,578.593506 160.619675,576.686707 147.099152,573.864197 
	C142.141129,572.829285 136.759384,572.950012 131.696167,573.568665 
	C127.623985,574.066223 124.593903,573.073242 121.568428,570.718506 
	C119.680511,569.249084 118.928024,567.900269 120.643578,565.760315 
	C123.194771,562.578003 122.921234,558.761719 123.251244,554.915222 
	C123.960205,546.651733 125.694710,538.190674 129.853729,531.228577 
	C132.082932,527.497070 135.868866,522.975647 141.415009,521.787048 
	C144.432190,521.140381 147.769928,513.662231 147.145737,508.948273 
	C146.036224,500.568970 147.508469,492.381012 148.417770,484.131104 
	C149.055649,478.343445 149.696487,472.524048 147.480240,466.869507 
	C146.993469,465.627594 146.613892,464.377106 145.530487,463.451263 
	C144.094086,462.223785 141.618622,461.866364 141.764099,459.252930 
	C141.983994,455.303009 140.577454,451.252258 142.433685,447.411407 
	C142.862549,446.524048 143.327499,445.341797 144.097702,444.979553 
	C152.881943,440.848358 154.745239,431.174805 160.193542,424.404633 
	C164.027054,419.641022 165.042160,412.534454 167.043823,406.385559 
	C173.129395,387.691498 181.291351,369.900848 189.821716,352.225098 
	C199.760223,331.631592 211.568558,312.270081 225.452728,294.104523 
	C230.401657,287.629517 233.271652,279.837128 237.569138,272.880249 
	C245.296204,260.371429 254.256378,248.908020 264.130646,238.070892 
	C288.427246,211.404968 317.383026,190.960266 349.246155,174.480820 
	C354.677582,171.671707 359.973328,168.387787 365.962952,166.705841 
	C369.441986,165.728912 371.237671,163.534836 371.253235,159.832153 
	C371.263031,157.507645 371.539246,155.183640 371.711761,152.860580 
	C371.982819,149.210999 373.793213,147.295227 377.561554,146.623703 
	C399.651062,142.687332 421.811279,139.109543 443.698029,134.103561 
	C448.520386,133.000580 451.110046,136.351028 453.681183,139.278122 
	C455.213745,141.022934 456.549683,141.529068 458.804138,141.250137 
	C487.669403,137.678619 516.570435,134.387726 545.414612,130.656601 
	C564.689209,128.163345 583.894897,125.129562 603.117065,122.242088 
	C612.017395,120.905113 620.427185,122.489006 628.287903,126.553177 
	C638.484192,131.824936 639.078125,144.414520 629.656555,151.050934 
	C628.858948,151.612778 628.082886,152.205276 626.431885,153.419754 
	C634.755676,155.792267 642.061340,158.709061 649.481201,161.259598 
	C661.611084,165.429169 673.318237,170.549332 684.830933,176.129684 
	C700.733398,183.837845 716.080688,192.548798 730.075256,203.390106 
	C744.546814,214.600983 758.209534,226.774246 769.822876,240.986023 
	C780.409424,253.941269 790.993286,266.866455 802.044556,279.450653 
	C818.928650,298.676697 831.566223,320.676270 841.704346,344.201385 
	C847.437195,357.504089 852.769775,370.934906 857.274719,384.673889 
	C862.356140,400.170868 866.215027,415.995087 867.678223,432.297882 
	C868.025452,436.166962 869.236694,439.307465 872.428833,441.715424 
	C875.838562,444.287445 876.458130,447.860168 874.617615,451.523560 
	C873.614136,453.520874 874.030945,454.924805 875.336365,456.668213 
	C867.075745,460.820984 867.699646,469.354279 865.319702,476.380646 
	C864.743713,478.081207 864.817017,479.979279 863.863037,481.627747 
	C861.472229,485.759003 861.638916,492.759460 865.253662,495.402222 
	C869.784607,498.714844 871.238098,503.525848 873.717285,508.350525 
M789.752014,482.378662 
	C788.344727,479.635620 786.042236,477.856171 783.566956,476.095520 
	C779.622864,473.290070 774.656799,473.397736 770.622437,471.293823 
	C763.779846,467.725403 758.525452,468.655365 754.381592,475.215302 
	C754.219482,475.472076 754.202637,475.820709 754.019592,476.483429 
	C759.467102,479.746399 764.945190,483.131653 770.538330,486.314667 
	C772.220947,487.272217 774.218323,488.082184 775.773376,485.721436 
	C777.238831,483.496674 776.549500,481.683197 775.034363,479.868073 
	C774.156128,478.816010 772.207581,478.652374 772.339539,476.627930 
	C774.431091,476.020935 775.617188,477.918365 777.302185,478.357239 
	C779.178040,478.845795 780.732605,481.249023 782.695740,480.403961 
	C786.205994,478.892944 787.881714,481.308899 790.473145,483.473907 
	C794.351135,487.454437 797.409241,491.519989 799.505371,497.141357 
	C802.187012,504.332916 804.869629,511.233643 805.378174,518.946167 
	C805.732056,524.314209 807.492554,525.646240 812.453796,523.900391 
	C827.626831,518.560974 843.333130,517.708435 859.187439,517.718933 
	C860.916199,517.720032 862.878357,518.361511 864.403870,516.565125 
	C864.198059,512.448914 861.893311,509.128723 860.032471,505.642242 
	C857.982666,501.801575 856.657715,498.006653 859.779114,494.005463 
	C860.925842,492.535400 861.078979,490.935944 859.040283,489.895081 
	C844.514832,499.868073 834.642944,500.720154 814.773438,490.746216 
	C807.385620,487.037689 800.096191,483.015533 792.341553,479.796356 
	C791.750305,481.086151 792.232422,483.107391 789.752014,482.378662 
M284.177704,639.432068 
	C279.182709,633.003174 273.577393,627.917908 264.466278,629.420288 
	C261.910706,629.841797 261.146606,627.697693 260.874207,625.550964 
	C260.526855,622.813660 262.032532,621.282166 264.505981,621.203430 
	C269.259705,621.052063 273.004456,619.040466 276.708618,616.219116 
	C285.246857,609.715820 297.369263,612.068787 303.704865,621.158142 
	C292.039001,620.382202 292.039001,620.382202 291.042633,625.567505 
	C298.848450,625.205200 304.924957,629.144165 309.720917,634.484070 
	C315.666016,641.103271 319.104156,649.357544 321.887512,657.784790 
	C327.061340,673.449707 325.958344,689.409119 323.417450,705.266541 
	C321.360992,718.100891 318.528534,730.888611 309.884491,741.272034 
	C304.230011,748.064331 297.725616,753.379883 287.897522,750.039001 
	C287.107361,749.770447 286.262146,749.652344 285.623962,750.447937 
	C284.822876,758.564941 286.782227,761.220703 294.562195,762.286011 
	C305.266663,763.751892 311.241180,756.389526 316.546265,749.292847 
	C328.510956,733.287720 332.702850,714.543213 333.709656,694.933105 
	C334.417511,681.145264 330.832550,667.846863 328.994781,654.352417 
	C327.257202,641.593689 322.955475,629.507202 316.685577,618.456665 
	C312.939178,611.853821 306.280029,607.072693 299.856415,602.797302 
	C294.972504,599.546631 289.425232,597.551941 283.260620,598.948914 
	C282.635803,599.090576 281.970337,598.684021 281.956055,597.818970 
	C293.039215,589.781311 303.215210,586.082703 316.803131,596.978943 
	C326.785156,604.983643 335.056305,614.644104 334.183319,628.908752 
	C333.580322,638.761780 334.965454,648.543884 335.411438,658.356079 
	C335.589447,662.273193 336.783936,666.329834 340.379791,668.815735 
	C348.204346,674.225037 350.649933,680.310974 348.669830,689.833801 
	C348.433838,690.968750 348.296265,692.142578 348.276276,693.301208 
	C347.944305,712.519470 345.907623,731.466309 339.587555,749.769897 
	C338.989380,751.502197 337.763855,753.509094 340.344849,755.643311 
	C349.184540,749.019897 348.541901,737.290039 354.496643,728.716125 
	C357.117218,733.729065 356.654022,738.972534 358.147278,744.241943 
	C360.071686,739.092834 364.097626,736.729431 368.707672,735.289734 
	C380.871857,731.490784 383.897583,722.972107 383.233337,710.995789 
	C382.922577,705.392761 381.841431,701.656433 377.477905,698.479675 
	C374.465576,696.286682 373.895142,693.212402 375.080475,689.596008 
	C376.244690,686.044189 378.496307,684.843018 382.112793,684.560242 
	C388.692902,684.045898 395.355560,684.063171 401.813934,682.410461 
	C401.475525,679.021240 407.631836,677.371887 412.586975,679.481079 
	C410.600830,680.924805 407.611816,679.336243 405.239899,682.206543 
	C408.165527,682.066101 410.391937,682.043030 412.600983,681.835144 
	C416.777863,681.442017 420.435638,677.701721 420.139038,674.246338 
	C419.692322,669.042847 415.972839,665.659912 411.205353,665.721680 
	C398.789276,665.882568 386.437714,667.413391 373.996246,667.209534 
	C367.360565,667.100830 360.576294,667.457092 354.368805,670.013062 
	C348.601349,672.387878 348.410797,672.732605 347.349182,666.749573 
	C345.054840,653.819031 343.706146,640.741638 341.714203,627.773865 
	C340.808533,621.877747 341.674500,615.871033 339.698059,610.062500 
	C335.775482,598.534485 329.046112,589.090454 319.767639,581.329712 
	C318.519653,580.285889 316.793762,578.821472 318.001648,577.134766 
	C321.754333,571.894409 319.174713,567.001770 317.815979,561.890747 
	C315.978088,554.977539 314.199768,547.975891 315.302826,540.724060 
	C316.375000,533.675293 315.565430,532.355347 308.614410,531.052063 
	C302.459991,529.898071 299.442932,524.415161 302.030396,518.837585 
	C303.128967,516.469543 303.021820,514.385132 301.598419,512.246155 
	C300.401978,510.448395 299.237000,508.622223 298.182678,506.738861 
	C296.018219,502.872650 296.715271,499.898926 300.741943,497.567383 
	C304.916138,495.150421 308.816589,492.266052 312.924225,489.727661 
	C317.882324,486.663696 320.975739,487.161407 325.693146,491.753510 
	C321.928528,492.776398 318.578278,494.257202 316.609985,497.405457 
	C317.448059,499.921539 320.402466,497.951935 321.141815,500.132355 
	C319.745483,501.391968 318.404633,502.613708 317.050140,503.820190 
	C315.561401,505.146332 314.057007,506.454895 312.564850,507.777222 
	C308.470642,511.405396 309.156464,515.540649 314.411499,517.055420 
	C317.892273,518.058716 321.600403,518.348694 325.230011,518.745300 
	C334.254425,519.731262 348.033661,532.027527 350.049042,541.033508 
	C350.074677,541.148071 349.899200,541.307556 349.756378,541.549927 
	C347.380981,542.144104 346.883636,540.144409 345.855255,538.717529 
	C341.780792,533.064087 338.070557,527.028687 331.073853,524.349487 
	C326.192413,522.480286 325.406189,522.866516 323.952728,528.195740 
	C336.060822,532.511841 338.335052,541.888245 341.502594,553.282715 
	C343.167480,559.271851 342.213959,565.679993 344.852783,571.354126 
	C345.694855,573.164856 345.877777,574.578369 345.504089,576.497192 
	C344.600830,581.135376 344.892395,585.782654 346.056183,591.669434 
	C346.992706,589.797363 347.376648,589.253723 347.545990,588.649902 
	C348.081787,586.739075 348.500854,584.795654 349.031891,582.883362 
	C350.002594,579.388000 354.200684,576.588135 357.125458,577.946777 
	C360.441711,579.487183 358.857025,582.362244 358.251862,584.873047 
	C357.244720,589.051514 356.140320,593.218567 355.405731,597.447571 
	C354.659119,601.745422 352.478546,604.297424 348.136017,605.171692 
	C345.186615,605.765442 343.354858,607.741760 342.440094,610.584290 
	C344.000275,611.629639 344.862549,610.405396 345.916351,610.144897 
	C350.380646,609.041199 354.960388,606.749817 359.305511,607.124329 
	C373.226074,608.324158 387.183777,608.614075 401.104767,609.597351 
	C412.562103,610.406616 413.495850,609.759521 415.687195,598.991882 
	C415.753326,598.667053 415.909180,598.360107 415.970886,598.034851 
	C418.354340,585.474243 418.839905,572.977173 414.300140,560.749634 
	C412.839996,556.816772 411.855804,552.812500 412.165222,548.663635 
	C412.720612,541.217102 410.101837,534.990234 405.506012,529.372437 
	C403.931030,527.447205 402.487122,525.415039 400.922638,523.480835 
	C397.747192,519.554993 396.739532,514.333923 393.039246,510.689026 
	C385.118500,502.886780 378.775055,493.882629 368.682007,487.792358 
	C359.992462,482.548981 356.722626,482.115295 346.236694,486.848297 
	C340.804535,489.300201 335.580750,493.288361 328.626892,491.833710 
	C329.756226,487.531067 333.250092,486.567993 336.897888,485.631744 
	C334.525177,482.665314 330.274719,482.802490 328.932495,479.001801 
	C335.130615,474.569519 341.119354,470.119446 347.281769,465.924591 
	C354.246643,461.183563 355.452423,461.740936 360.138824,469.001953 
	C363.709259,474.533905 366.532257,481.359436 375.060852,480.960052 
	C376.760223,479.061798 375.262726,475.418396 379.067383,474.121185 
	C382.654816,477.750549 383.653351,482.618378 384.240265,487.480835 
	C384.943420,493.306396 387.610474,497.580109 392.301636,501.093903 
	C406.171478,511.482788 413.377991,526.055725 417.454956,542.451538 
	C421.168396,557.385559 422.306122,572.645996 423.132141,587.947998 
	C423.577393,596.196472 422.810120,604.265320 419.835449,612.012024 
	C415.471558,623.376587 415.206146,634.122925 424.205139,643.611267 
	C428.457733,648.095032 428.986725,653.285217 427.170990,658.942383 
	C426.248444,661.816833 425.244385,664.796204 426.331268,667.749390 
	C430.234802,678.355896 430.276062,689.649109 431.827850,700.605347 
	C433.996338,715.915710 433.457916,731.517517 434.178070,746.988098 
	C434.852631,761.478638 434.669647,776.039490 438.205322,790.350586 
	C440.061279,797.862976 443.055695,804.863464 445.639862,812.054626 
	C446.736877,815.107422 448.951843,816.873474 452.241241,814.695679 
	C458.165649,810.773438 465.033722,809.787476 471.725372,809.020203 
	C509.920258,804.640930 548.232422,801.659363 586.627258,799.545471 
	C619.536072,797.733704 652.163696,799.977417 684.695557,804.635376 
	C688.665466,805.203796 690.956055,804.077820 690.809570,799.800354 
	C690.421936,788.485413 690.206848,777.157227 689.477173,765.863098 
	C688.522461,751.088379 687.084473,736.345520 685.959961,721.580872 
	C685.215881,711.810669 685.183411,702.025696 681.958252,692.514832 
	C679.607117,685.581299 678.977417,678.182922 678.823792,670.812927 
	C678.767151,668.095581 679.304871,665.593811 680.366272,663.064575 
	C687.624329,645.769104 687.720886,628.393372 680.747986,610.961121 
	C680.141174,609.444092 679.856201,607.752563 679.684387,606.114502 
	C678.105591,591.054626 676.398743,576.004822 675.091797,560.920593 
	C673.259216,539.769958 674.202332,518.903259 684.590454,499.699219 
	C688.933777,491.669830 691.368835,483.667023 689.038391,474.584442 
	C688.680664,473.190277 688.775574,471.510010 689.190369,470.119934 
	C690.365112,466.182709 688.711548,463.497528 686.029114,460.847778 
	C683.891541,458.736237 681.078552,456.852112 681.087769,452.688904 
	C689.035950,452.413025 689.775391,460.668152 694.521790,463.655914 
	C697.421387,462.763275 697.475464,460.106720 698.473877,458.109528 
	C699.249939,456.556976 699.431213,454.023376 701.858032,454.548859 
	C704.351501,455.088745 703.442322,457.403931 703.338257,459.166779 
	C703.149109,462.369171 702.171082,465.848114 706.085083,467.785400 
	C708.423584,465.672180 708.971008,462.793091 710.193726,460.271698 
	C713.844788,452.742188 715.317993,452.377838 722.103882,457.054840 
	C723.469055,457.995789 725.086853,458.591980 726.380798,459.610596 
	C730.716370,463.023529 736.344482,464.711548 740.088684,469.073090 
	C736.630005,473.854523 732.658264,472.743073 728.723389,471.125366 
	C727.937561,473.476868 728.208252,475.769287 726.738403,477.716064 
	C722.732300,477.131622 719.587463,474.360596 715.784668,473.193970 
	C714.025452,472.654297 712.203979,472.204315 711.127014,473.492859 
	C705.925415,479.716400 700.776794,486.001923 695.973511,492.533295 
	C693.491089,495.908844 692.873657,500.198395 691.973022,504.276947 
	C691.324890,507.212067 689.687805,508.938141 686.314758,507.783295 
	C685.921875,509.747498 683.746399,511.949249 685.064636,513.384705 
	C687.608459,516.154785 686.581238,518.915100 686.270935,521.786682 
	C685.749756,526.610168 685.959167,531.065979 691.670288,532.797607 
	C695.188965,533.864441 697.311829,536.265015 699.325134,539.293823 
	C700.772888,541.471924 703.387634,543.085327 705.792480,544.368530 
	C709.737183,546.473328 715.590576,544.110779 717.204285,540.163025 
	C716.667358,538.248474 713.756592,540.082520 713.397705,537.552612 
	C716.690002,535.786865 720.561523,537.500366 723.967224,536.216492 
	C723.050415,533.300903 720.452698,535.342590 719.064758,533.922058 
	C718.745667,532.706177 718.148499,531.362915 719.456482,529.845093 
	C722.407654,534.676941 726.325256,531.320496 729.626160,531.643677 
	C732.299500,528.597046 727.683350,523.704224 732.724670,521.570557 
	C734.192383,522.067139 732.082458,523.434570 733.181885,523.889221 
	C735.850281,525.054138 734.632568,520.937927 737.176575,521.479370 
	C737.783203,526.621887 742.217712,529.653931 744.115845,534.122681 
	C748.112305,528.520081 747.495178,521.320618 753.121338,515.636841 
	C752.838806,518.815857 753.453064,520.826965 753.787109,522.841309 
	C754.545959,527.416992 755.465454,532.315796 749.308533,534.460632 
	C746.991821,535.267700 746.839111,537.108948 748.471313,538.785400 
	C750.628418,541.001038 751.148865,543.604065 751.137756,546.560486 
	C751.109375,554.090332 751.729553,561.478577 756.588928,567.789856 
	C757.444153,568.900513 757.430725,570.430237 756.950012,571.652710 
	C754.978333,576.666748 753.260315,581.662598 753.655029,587.221619 
	C753.752502,588.594421 753.245911,589.949219 754.856079,590.487122 
	C756.437439,591.015503 757.343567,589.922424 757.903564,588.602051 
	C758.983765,586.054932 760.857788,584.169556 763.014038,582.575073 
	C765.346985,580.849976 767.501953,581.151794 769.783630,583.060120 
	C772.083862,584.983887 772.056641,586.824280 770.615906,589.139893 
	C768.509033,592.526306 765.939819,595.774780 764.618164,599.458923 
	C763.216492,603.366333 761.458862,602.961853 758.705872,601.405396 
	C757.037659,600.462280 755.994629,599.063110 754.943115,597.522827 
	C751.075439,591.857300 747.390747,586.094421 744.588501,578.307800 
	C742.516907,583.653992 745.790710,586.899475 745.643921,590.501282 
	C745.505127,593.905273 747.143250,596.318420 750.072083,597.649231 
	C752.958069,598.960510 753.823608,601.156860 753.926392,604.030151 
	C754.533081,620.989868 755.848328,637.932617 755.073303,654.925720 
	C755.030151,655.872925 754.141052,657.267944 756.346130,657.903687 
	C757.355469,654.881287 757.705017,651.808594 757.853699,648.682190 
	C758.146301,642.529663 758.421814,636.375305 758.821777,630.229370 
	C758.955505,628.173523 758.684998,625.294250 761.976929,625.713867 
	C765.782410,626.198914 767.166870,623.907593 767.973145,621.079590 
	C769.345337,616.266968 772.513611,612.224792 773.456238,607.189941 
	C773.946106,604.573730 775.839661,602.441833 778.886963,601.953613 
	C782.464539,601.380432 784.453674,598.807373 785.469910,595.752441 
	C787.144958,590.717102 788.773254,585.563110 786.611572,580.179504 
	C785.848938,578.280334 785.412415,576.115356 786.191223,574.299438 
	C788.697266,568.455933 786.227539,563.254211 784.392517,558.013611 
	C780.480164,546.839905 775.269470,536.245239 769.446594,525.956543 
	C767.745239,522.950439 766.972473,520.406738 769.918274,517.528564 
	C772.623657,514.885315 771.341064,512.968079 768.123352,511.596893 
	C765.644836,510.540710 762.551758,511.034912 760.330994,508.725067 
	C760.891174,508.021606 761.263123,507.484711 761.703735,507.011963 
	C766.515625,501.849304 766.174927,498.864868 760.220825,495.155914 
	C756.281555,492.702057 752.272888,490.492004 747.870728,488.778046 
	C743.071655,486.909607 738.589172,483.983368 734.376404,477.718964 
	C744.524963,478.061096 752.202209,474.823975 758.237122,466.485596 
	C751.752930,466.590637 747.945862,463.135895 745.286987,458.109772 
	C744.996521,457.560669 744.369873,457.110565 743.798218,456.800873 
	C733.694275,451.327118 725.351318,442.495392 713.247375,440.784607 
	C712.444458,440.671143 711.666931,439.633209 711.076538,438.871185 
	C700.788208,425.592651 690.490601,412.320770 680.331909,398.943481 
	C679.351440,397.652374 677.717163,396.309174 678.332947,393.753784 
	C680.617798,393.753784 682.963989,393.473419 685.223083,393.798309 
	C702.675659,396.308380 720.121460,398.802795 737.692627,400.432098 
	C751.267395,401.690857 764.628906,404.820374 778.320312,405.243408 
	C786.700317,405.502319 793.241821,402.284149 797.682251,395.221710 
	C804.037903,385.113129 806.745361,373.763489 807.621033,362.064301 
	C809.154236,341.581696 806.094849,321.889252 799.396729,302.240601 
	C792.239563,281.245514 779.561523,264.913208 762.453552,252.017944 
	C743.187866,237.496307 722.356323,225.329559 700.523132,214.844803 
	C675.059570,202.616638 648.711243,192.954010 621.089844,187.334152 
	C599.750366,182.992447 578.025452,181.036774 556.217529,179.999603 
	C526.702393,178.595856 497.309998,178.606201 468.181793,184.371307 
	C465.288818,184.943893 461.911255,184.976349 459.970856,187.503021 
	C457.906738,190.190826 455.204437,190.892532 452.217468,191.414749 
	C436.662262,194.134277 421.032288,196.505890 405.596344,199.788574 
	C399.374481,201.111755 394.451508,200.598526 390.184143,195.953644 
	C388.701965,194.340347 387.193542,194.157837 385.265930,194.901932 
	C380.144867,196.878754 374.941864,198.650696 369.862488,200.726807 
	C354.613586,206.959549 339.907928,214.313416 325.425659,222.162125 
	C303.244995,234.183029 282.898315,248.782959 263.980774,265.395630 
	C254.106918,274.066498 244.950989,283.503204 236.454666,293.523163 
	C231.204102,299.715271 225.581039,305.818817 223.125687,313.820129 
	C220.395508,322.716919 217.003326,331.377533 214.586075,340.401520 
	C209.796844,358.280426 207.251053,376.242737 210.263306,394.666382 
	C211.968338,405.094757 222.084274,411.309845 232.384628,408.206787 
	C241.225967,405.543243 250.334442,404.713531 259.406830,403.523682 
	C263.079254,403.042053 265.684662,404.272858 268.014221,407.241028 
	C271.306030,411.435272 274.994568,415.391571 280.508789,416.762146 
	C293.108582,419.893921 303.780975,427.911591 316.723663,430.538116 
	C322.425110,431.695099 327.690857,434.006439 334.113647,431.445984 
	C331.880188,436.599762 328.439850,440.002625 325.568817,443.784882 
	C319.147827,452.243896 320.375641,451.998322 327.921448,455.465302 
	C329.233551,456.068176 331.075226,456.654541 330.136841,458.645264 
	C329.246246,460.534698 327.528137,459.665131 326.182312,459.167145 
	C321.657227,457.492859 317.215576,455.584900 312.658783,454.006592 
	C306.873871,452.002930 301.916748,453.508240 298.152710,458.407593 
	C295.244476,462.193176 292.205994,465.230377 286.867249,465.257629 
	C273.328339,465.326752 260.131653,468.379272 246.802032,470.281982 
	C231.714539,472.435638 217.000534,475.810425 203.804596,483.829620 
	C196.131714,488.492401 188.786316,493.693787 181.117554,498.363770 
	C173.964584,502.719574 166.588882,504.149811 159.328522,498.350677 
	C157.621124,496.986908 155.828537,496.678802 154.807953,498.961273 
	C151.710068,505.889435 149.879517,513.192688 148.298630,521.119995 
	C184.081177,515.055359 218.274643,522.146362 252.218964,528.204224 
	C250.707687,523.797424 253.399109,518.717773 253.494705,513.463623 
	C253.572495,509.189667 256.044342,507.589203 260.141388,508.259674 
	C267.667084,509.491180 275.192139,510.726501 282.650787,511.949280 
	C284.405334,511.563049 283.167938,508.783813 286.039978,508.805908 
	C287.123810,510.252838 288.533112,512.047729 289.840210,513.914185 
	C290.538910,514.911804 290.757111,516.076416 290.136108,517.225037 
	C289.395538,518.594788 288.291138,518.031189 287.105621,517.923706 
	C283.728088,517.617310 280.629089,516.661316 277.690002,514.974365 
	C273.385620,512.503845 269.963440,513.705017 266.756775,517.329895 
	C261.081207,523.745728 257.872894,531.410095 254.311707,539.053528 
	C249.614853,549.134399 243.698715,558.641052 238.543518,568.518127 
	C236.971039,571.530945 234.703583,574.572632 235.630707,578.348145 
	C237.218353,584.813354 235.761414,591.560974 232.073914,595.948364 
	C226.215912,602.918274 227.614777,610.086975 228.147903,617.560486 
	C228.336243,620.200684 229.127243,622.794800 229.592682,625.418945 
	C230.209854,628.898499 230.648697,632.464600 229.010208,635.725525 
	C227.287888,639.153381 226.976273,642.689941 227.099884,646.402649 
	C227.238602,650.569397 226.899826,654.709412 226.413757,658.863098 
	C225.855560,663.633301 224.936691,668.614746 227.197266,673.143799 
	C232.405319,683.578247 241.126648,691.330444 248.842529,701.580139 
	C246.210068,684.103638 245.432556,668.062500 250.670013,652.310364 
	C251.944824,648.476318 253.065567,644.971863 250.368637,640.871582 
	C248.788864,638.469788 250.366730,634.915955 252.296677,632.552246 
	C253.808304,630.700989 255.089020,627.768738 257.783813,627.906616 
	C260.799194,628.060974 259.981781,631.577332 261.174103,633.426147 
	C261.349060,633.697388 261.615234,633.909851 262.061584,634.387512 
	C272.926056,630.544189 279.317108,636.721802 284.931915,644.963989 
	C287.710175,649.042236 288.302734,654.176636 291.998688,658.722168 
	C291.026611,651.270264 287.114380,645.907959 284.177704,639.432068 
M809.838196,792.829773 
	C796.422852,787.401794 782.886719,782.374695 768.795898,778.880249 
	C764.894165,777.912598 762.561646,779.304077 760.863098,782.186218 
	C758.095581,786.882385 760.989685,798.207581 765.551025,801.459351 
	C767.182312,802.622253 769.047119,803.609497 768.809448,806.049011 
	C768.347412,810.792297 763.911316,814.767151 759.075500,814.353455 
	C755.153748,814.017883 753.910339,815.650208 754.370361,819.259460 
	C754.768555,822.384583 755.359070,825.457092 755.034119,828.682434 
	C753.115173,847.726929 747.531982,866.121216 745.155212,885.089233 
	C744.271484,892.141663 744.755432,893.495056 751.564514,895.489807 
	C764.744507,899.350891 778.306335,900.989258 791.941162,901.623474 
	C818.081848,902.839600 843.403809,899.136597 867.064880,887.271790 
	C879.460632,881.055908 891.177490,873.767395 900.825317,863.605713 
	C906.801758,857.310974 906.666992,849.056458 900.240662,843.334290 
	C894.779053,838.471130 888.896423,834.097534 882.668396,830.219727 
	C865.160339,819.318726 846.793823,809.978027 828.312805,800.908630 
	C822.547241,798.079285 816.972717,794.561218 809.838196,792.829773 
M255.034042,796.572144 
	C232.600250,808.482971 212.127045,823.107910 193.770660,840.689392 
	C186.047928,848.086182 185.995804,850.302368 194.416931,856.357178 
	C211.355606,868.536316 229.741959,878.289307 248.589294,887.027344 
	C266.825745,895.482056 285.481812,903.079895 304.523804,909.586670 
	C321.567261,915.410522 338.991089,919.605286 357.161194,919.713684 
	C364.005707,919.754578 365.145386,918.640320 364.770660,911.896912 
	C363.783020,894.122498 362.592651,876.358948 361.688477,858.580627 
	C360.957001,844.197815 363.582184,846.116577 347.878052,841.483459 
	C319.579285,833.134583 294.942596,818.508240 273.572418,798.332825 
	C265.659210,790.862000 264.851379,790.521362 255.034042,796.572144 
M494.033325,832.741699 
	C495.408112,835.070862 497.706238,836.024780 500.120209,836.755615 
	C513.276184,840.738770 526.835449,841.625061 540.458923,841.777161 
	C544.417114,841.821411 547.720764,839.675903 550.872131,837.414917 
	C553.695862,835.389038 553.913574,832.997864 552.414734,830.033142 
	C549.356262,823.983398 543.880493,822.142578 537.848389,822.400574 
	C529.745300,822.747070 521.691650,824.178589 513.588257,824.614929 
	C507.812714,824.925964 502.704926,827.374634 497.250702,828.666016 
	C495.655029,829.043823 493.471222,829.515503 494.033325,832.741699 
M764.815002,697.513306 
	C763.971252,685.166626 762.354126,672.931519 759.689087,659.856262 
	C757.947754,665.001160 758.384705,669.342285 758.278259,673.611328 
	C758.197876,676.836548 758.178955,679.767395 754.751282,681.714722 
	C752.811218,682.816956 752.150269,685.336792 753.095581,687.505798 
	C754.291565,690.250000 754.047241,693.048523 754.086487,695.849243 
	C754.198242,703.834778 754.200562,711.821838 754.319275,719.807251 
	C754.344666,721.513184 753.821838,723.608093 756.858337,724.456604 
	C759.403137,717.953918 756.326721,710.770447 758.926025,704.118408 
	C761.161438,705.709473 760.934448,707.811890 761.087646,709.694336 
	C762.054932,721.573242 765.327393,732.873535 769.626770,743.911011 
	C770.548584,746.277405 772.245728,748.141541 774.263489,749.686035 
	C776.463806,751.370239 778.824036,751.099609 780.685852,749.455200 
	C782.491821,747.860107 786.032593,747.389038 785.177734,743.688721 
	C784.575195,741.080872 784.067749,737.764343 781.062561,737.446289 
	C773.991455,736.697693 772.569580,731.146118 770.785278,726.112915 
	C767.611328,717.160339 766.948303,707.616150 764.815002,697.513306 
M357.293945,761.578308 
	C356.995087,765.887268 356.459198,770.196167 356.457153,774.505249 
	C356.454590,779.929016 363.353149,784.918945 368.382294,783.356445 
	C368.190857,780.798157 365.841797,780.867920 364.330994,780.459045 
	C358.896362,778.988342 357.355347,775.553711 358.181366,770.292847 
	C358.668304,767.191467 358.785980,763.986755 358.639618,760.848511 
	C358.553040,758.992004 357.739105,759.489807 357.293945,761.578308 
M362.454803,806.491699 
	C359.738068,808.159119 360.071442,812.153015 356.174622,813.407959 
	C359.973053,815.987793 362.044159,814.480225 363.903046,812.069580 
	C365.532501,809.956421 366.283447,807.953735 362.454803,806.491699 
M754.505310,751.196350 
	C755.843079,754.188843 754.079712,757.883728 756.811707,760.606201 
	C756.695923,755.394165 757.610718,750.096191 755.335510,743.764282 
	C753.991577,746.816650 754.338013,748.605835 754.505310,751.196350 
M296.121948,692.619263 
	C294.891174,693.869690 294.499237,695.319397 295.003418,697.003174 
	C300.407104,696.815002 300.457642,696.768005 300.070679,692.133301 
	C298.964478,692.221741 297.856537,692.310364 296.121948,692.619263 
M299.713409,672.672729 
	C298.299133,670.802063 296.435822,671.030884 294.435455,671.310913 
	C293.762756,676.214478 298.686279,674.444641 299.909302,677.041138 
	C300.934082,675.413147 300.106018,674.371155 299.713409,672.672729 
M866.815796,509.193451 
	C865.138733,506.628754 866.092896,502.545319 861.853394,500.725952 
	C862.169128,505.739166 865.058838,508.821899 867.717102,512.063110 
	C867.487061,511.310211 867.257019,510.557281 866.815796,509.193451 
M746.876160,669.951782 
	C747.497498,671.329041 745.687500,673.301880 748.162415,674.453003 
	C751.036438,671.543945 748.510437,668.446594 748.615295,665.471130 
	C747.764709,666.718262 746.211121,667.550110 746.876160,669.951782 
M755.634827,663.013733 
	C754.700867,660.083191 753.120972,661.746155 752.002258,662.684021 
	C751.000305,663.523987 751.239075,665.016724 752.214111,665.667908 
	C754.715942,667.338928 754.458801,664.465088 755.634827,663.013733 
z"/>
<path fill="#000000" opacity="1.000000" stroke="none" 
	d="
M117.664871,515.616455 
	C115.201088,522.532104 114.183792,529.625183 109.331261,535.106079 
	C108.723152,535.792908 108.070061,537.167664 108.358673,537.809937 
	C111.880600,545.648010 108.474785,554.231628 111.108406,562.185852 
	C111.880844,564.518860 112.047417,567.006348 113.494408,569.170410 
	C115.763855,572.564392 114.367630,575.210510 111.233307,577.023071 
	C101.316589,582.758057 91.339981,588.389648 81.376396,594.043335 
	C76.535721,596.790100 74.942490,595.853149 74.721031,590.119324 
	C74.425552,582.469543 74.275047,574.812256 73.841881,567.170654 
	C73.681023,564.333008 74.488594,562.332947 76.944511,560.936829 
	C80.991684,558.636047 84.771805,555.581787 89.094963,554.106873 
	C99.371384,550.601074 102.412109,541.641235 106.057335,533.108521 
	C111.000198,521.538269 117.958458,510.793274 120.180641,498.081665 
	C120.704720,495.083771 121.939430,492.049835 124.474373,489.745636 
	C123.255363,498.505707 120.328293,506.823578 117.664871,515.616455 
z"/>
<path fill="#000000" opacity="1.000000" stroke="none" 
	d="
M131.479706,465.551208 
	C132.274048,461.214874 134.350739,459.074127 139.207458,459.625946 
	C137.513596,462.484283 134.153488,463.318024 133.532425,466.481201 
	C133.011444,469.134644 132.496048,471.989410 128.884781,474.025787 
	C129.866547,470.840637 130.624252,468.382324 131.479706,465.551208 
z"/>
<path fill="#000000" opacity="1.000000" stroke="none" 
	d="
M540.780396,210.052322 
	C548.936523,216.353348 557.501770,221.497208 564.026489,229.299530 
	C572.092773,238.945221 578.566711,249.494766 584.161743,260.702484 
	C590.631104,273.661469 598.667297,285.707001 606.783203,297.665985 
	C615.640991,310.718140 624.827881,323.546783 633.820618,336.507965 
	C635.029785,338.250732 636.354248,340.014740 636.656738,342.699951 
	C631.174622,341.923920 628.863892,337.928619 626.307068,334.144287 
	C620.847290,326.063354 616.744995,317.123779 609.664673,310.045410 
	C605.736877,306.118713 602.640808,301.169861 599.946472,296.255920 
	C597.508728,291.810089 593.900208,289.782166 589.378479,288.853943 
	C584.336792,287.818970 579.890930,285.870270 576.379456,281.975067 
	C574.398010,279.777130 571.558716,279.091797 568.883606,278.180267 
	C563.572205,276.370514 559.609558,273.288116 557.604675,267.741791 
	C555.989929,263.274689 553.067932,259.335541 548.979431,257.005646 
	C544.108154,254.229721 540.476746,250.252777 537.984314,245.687622 
	C532.395752,235.451614 522.874207,233.333435 513.588989,235.801636 
	C499.012756,239.676331 484.859711,244.552002 474.173401,257.317505 
	C465.627899,267.525665 458.038635,278.436066 449.396942,288.525146 
	C447.110138,291.194977 445.219269,294.126434 443.807343,297.362091 
	C441.052246,303.675751 437.592987,309.481659 432.367065,314.152100 
	C429.084564,317.085663 427.928009,321.643707 425.056885,324.826172 
	C414.595428,336.422058 404.471680,348.341370 393.161194,359.146667 
	C392.003937,360.252228 390.530914,361.027313 388.443176,361.315918 
	C393.070190,354.566681 397.668732,347.797668 402.330261,341.072357 
	C411.700958,327.553009 420.907715,313.913849 430.333282,300.442352 
	C440.449707,285.983459 449.125183,270.669617 458.314880,255.678619 
	C466.538513,242.263565 475.579468,229.817917 486.940552,218.828506 
	C501.145813,205.087997 520.494263,198.070312 540.780396,210.052322 
z"/>
<path fill="#000000" opacity="1.000000" stroke="none" 
	d="
M529.289734,352.264526 
	C530.699463,351.064026 532.184448,350.314362 532.938354,349.107849 
	C535.493530,345.018860 538.377991,341.487976 543.564819,340.926422 
	C551.585571,340.058075 559.281982,340.337585 566.869812,344.109985 
	C576.620117,348.957520 581.889526,357.002838 586.222473,366.472839 
	C595.071838,385.813660 604.018860,405.119720 613.816284,424.011505 
	C614.273499,424.892975 615.016235,425.848175 614.970093,426.734955 
	C614.436096,436.992920 617.164001,447.724152 610.431702,457.097137 
	C606.307190,462.839508 601.540283,466.242462 593.796570,465.787842 
	C586.899048,465.382904 579.899414,466.852814 572.936890,467.393066 
	C557.666809,468.578003 542.372314,469.523804 527.055847,469.009705 
	C510.156555,468.442474 496.771912,456.829376 494.275116,440.907349 
	C493.406036,435.365417 494.376007,429.828888 496.201324,424.702393 
	C502.115570,408.091797 508.445679,391.629242 514.623840,375.112732 
	C517.823730,366.558380 522.991760,359.253876 529.289734,352.264526 
M608.312744,448.670563 
	C611.673096,439.929871 609.979431,431.624542 605.855286,423.678619 
	C596.127014,404.935272 586.726685,386.031860 578.000610,366.802826 
	C572.851440,355.456055 564.441589,348.743042 551.838989,348.574158 
	C542.365662,348.447174 527.850830,355.223663 523.827332,366.886078 
	C519.716919,378.800385 514.084229,390.180786 509.635529,401.989868 
	C506.069458,411.455963 502.123596,420.806488 499.574585,430.649567 
	C498.491180,434.833282 498.701447,438.746552 500.019073,442.858795 
	C503.929779,455.063873 512.897156,460.673035 524.933044,461.882721 
	C547.398438,464.140656 569.820496,461.970520 592.214478,460.410767 
	C599.291138,459.917877 605.372498,456.817657 608.312744,448.670563 
z"/>
<path fill="#000000" opacity="1.000000" stroke="none" 
	d="
M656.616211,370.191162 
	C649.588684,371.948181 648.041870,373.928284 649.362244,380.819183 
	C650.226074,385.327789 649.872864,388.950897 645.859131,391.821930 
	C643.895874,393.226349 643.360962,395.575531 642.941345,397.959900 
	C641.966675,403.498260 637.563965,405.659027 632.584656,402.873230 
	C627.958069,400.284851 623.464355,397.471252 620.263123,392.958466 
	C617.363220,388.870392 616.805664,383.574463 619.869629,379.591827 
	C623.177246,375.292511 625.588196,370.797760 626.550537,365.351410 
	C627.281616,361.213837 629.836548,358.088928 634.418518,357.392151 
	C637.130737,356.979675 638.957581,355.587830 639.907959,352.959351 
	C640.584045,351.089355 642.157043,349.104034 643.901062,350.879669 
	C649.346375,356.423492 655.559448,361.585693 656.616211,370.191162 
z"/>
<path fill="#000000" opacity="1.000000" stroke="none" 
	d="
M359.655365,677.265381 
	C360.445374,678.881531 361.760315,679.921692 361.433716,681.946533 
	C358.465881,682.367249 355.312317,683.457886 353.045319,680.370544 
	C352.022034,678.976929 352.134216,677.121582 353.795135,675.926575 
	C355.995972,674.343140 357.850616,675.041382 359.655365,677.265381 
z"/>
<path fill="#000000" opacity="1.000000" stroke="none" 
	d="
M546.129395,398.944977 
	C549.879211,404.850952 549.477417,412.277740 555.138428,417.417480 
	C550.913391,418.729980 546.239258,417.751556 543.780334,422.558594 
	C542.265076,425.520752 541.398560,428.482513 541.397339,431.528290 
	C541.395020,437.423431 537.759460,440.898010 533.561707,444.517700 
	C533.791382,439.838715 534.449280,435.393433 536.011475,431.065948 
	C537.222839,427.710205 537.860474,424.465546 533.272644,423.024994 
	C532.271973,422.710815 531.492371,422.038116 531.288513,420.970520 
	C530.236023,415.459686 529.104187,409.939514 531.449585,403.738190 
	C533.971130,406.376740 533.759094,409.255310 534.206604,411.885406 
	C534.997314,416.533081 536.988281,417.786194 542.032776,416.688629 
	C546.209778,415.779907 544.591675,412.793854 544.214722,410.320129 
	C543.564331,406.052338 542.824585,401.798157 542.153564,397.533386 
	C541.954956,396.270660 541.684204,394.953247 542.781982,393.829498 
	C545.375244,394.568817 544.906494,397.096069 546.129395,398.944977 
z"/>
<path fill="#000000" opacity="1.000000" stroke="none" 
	d="
M521.373413,434.114685 
	C523.655457,431.050140 526.452332,429.892212 530.365295,430.144836 
	C529.666077,433.990631 528.260620,437.071442 525.057922,438.145264 
	C523.061096,438.814758 521.704590,436.599518 521.373413,434.114685 
z"/>
<path fill="#000000" opacity="1.000000" stroke="none" 
	d="
M562.460083,451.011169 
	C557.459229,448.446564 557.099426,447.462463 559.200012,441.570587 
	C560.416992,445.063690 562.372314,447.692810 562.460083,451.011169 
z"/>
<path fill="#000000" opacity="1.000000" stroke="none" 
	d="
M559.319824,436.724457 
	C559.202515,437.905853 559.349243,439.521759 557.868408,438.417847 
	C555.301941,436.504639 555.249634,431.765839 557.899902,428.411896 
	C558.414917,431.348877 558.858582,433.879303 559.319824,436.724457 
z"/>
</svg>