<svg version="1.1" id="Layer_1" xmlns="http://www.w3.org/2000/svg" xmlns:xlink="http://www.w3.org/1999/xlink" x="0px" y="0px"
	 width="100%" viewBox="0 0 300 300" enable-background="new 0 0 300 300" xml:space="preserve">
<path fill="#FFFFFF" opacity="1.000000" stroke="none" 
	d="
M196.000000,301.000000 
	C130.666672,301.000000 65.833359,301.000000 1.000026,301.000000 
	C1.000017,201.000031 1.000017,101.000061 1.000009,1.000066 
	C100.999947,1.000044 200.999893,1.000044 300.999878,1.000022 
	C300.999939,100.999939 300.999939,200.999878 300.999969,300.999908 
	C266.166656,301.000000 231.333328,301.000000 196.000000,301.000000 
M13.758427,132.435532 
	C13.739951,132.746063 13.721476,133.056610 13.474916,133.980499 
	C13.400534,134.185562 13.326152,134.390610 13.050863,134.414642 
	C13.050863,134.414642 12.896676,134.679565 12.896676,134.679565 
	C12.896676,134.679565 13.214633,134.697845 12.991469,135.452179 
	C12.802698,136.215790 12.613927,136.979416 11.958241,138.157333 
	C12.358019,139.978027 12.757796,141.798737 13.484304,144.286987 
	C13.621743,144.493118 13.759183,144.699234 13.698215,145.160538 
	C13.698215,145.160538 13.917923,145.396179 13.917923,145.396179 
	C13.917923,145.396179 14.206523,145.250305 14.580566,145.638336 
	C14.716097,145.756271 14.851627,145.874191 15.172083,146.665848 
	C20.224525,148.718246 22.493322,146.212387 22.274393,138.793976 
	C22.311230,138.429718 22.348066,138.065460 22.557648,137.108582 
	C22.438698,136.940689 22.319746,136.772781 22.829149,136.573456 
	C24.908295,134.431488 26.987440,132.289536 29.849997,130.036804 
	C38.740681,126.917580 47.825447,127.941177 57.800884,128.913773 
	C72.195343,131.594879 86.589806,134.275986 101.689453,137.017227 
	C104.852676,138.157028 107.994431,139.366882 111.205383,140.350937 
	C111.622253,140.478699 112.396049,139.441803 113.759460,138.999405 
	C115.531075,139.861465 117.302689,140.723526 119.902832,141.858398 
	C122.236252,141.945419 124.569672,142.032455 127.063416,142.772354 
	C127.343910,143.847610 127.624405,144.922852 127.488686,146.206024 
	C127.231537,146.400558 127.058517,146.652802 126.491013,147.313858 
	C126.312462,147.866119 126.133904,148.418381 125.982353,149.005295 
	C125.982353,149.005295 125.971603,148.966217 125.447357,149.272476 
	C125.286125,149.840210 125.124886,150.407944 124.988571,150.980408 
	C124.988571,150.980408 124.956726,150.964813 124.240166,151.090591 
	C119.253998,157.964844 119.476715,168.515350 128.308136,171.635773 
	C130.747681,172.873337 133.067078,174.532745 135.649597,175.268433 
	C143.045120,177.375244 150.547363,179.107407 158.760208,181.008652 
	C159.514252,181.016785 160.268311,181.024918 161.754822,181.065750 
	C163.504791,181.702805 165.254761,182.339859 167.795807,183.086838 
	C179.463226,184.726212 191.092361,186.851929 202.816193,187.775055 
	C207.779129,188.165833 212.941086,186.028946 218.664261,184.962341 
	C219.779648,184.301575 220.895020,183.640823 222.750809,182.967468 
	C227.873703,180.130753 232.864670,177.156036 235.609070,170.849091 
	C238.252487,169.323074 240.535645,167.617401 239.618317,163.712631 
	C242.929276,159.323868 245.056122,154.421112 246.717804,148.972900 
	C248.146423,148.316360 249.575043,147.659821 251.000000,147.000000 
	C251.000000,147.000000 250.996948,146.997986 251.021820,147.767624 
	C252.723206,152.177841 254.424576,156.588043 256.179657,161.741684 
	C257.281158,164.136414 256.390350,168.061157 261.585510,167.891953 
	C262.767792,166.825775 264.334259,165.973175 265.066162,164.656616 
	C268.314514,158.813461 272.024292,153.087326 274.250458,146.848984 
	C277.378815,138.082489 279.341125,128.899887 281.879059,119.262451 
	C281.874146,118.837090 281.869232,118.411720 282.412994,117.646843 
	C282.476166,117.040810 282.539337,116.434784 282.756409,114.939117 
	C282.555389,110.614174 282.354370,106.289223 282.123169,101.088356 
	C281.622375,97.930283 283.712250,92.855301 276.128967,94.124893 
	C271.137726,94.160942 266.146454,94.196991 260.361725,94.088936 
	C258.575684,94.376488 256.789612,94.664047 254.407944,94.389290 
	C250.590820,94.289330 246.773712,94.189369 242.169403,94.062355 
	C241.120895,94.077583 240.072403,94.092812 238.347504,94.046379 
	C237.894714,94.038330 237.441940,94.030281 236.399155,93.435890 
	C222.389694,93.288795 208.276031,92.006241 194.396912,93.279678 
	C176.724533,94.901161 159.241959,98.591202 140.938538,101.284882 
	C132.610672,104.292953 123.428688,104.953697 116.058205,110.622208 
	C112.931831,113.026657 109.485413,115.014969 105.453651,117.119942 
	C104.503853,117.722282 103.243774,118.110588 102.656013,118.962662 
	C99.503120,123.533463 94.960312,123.342377 90.273827,122.881332 
	C87.182655,122.577240 84.087387,122.314865 80.142677,122.003555 
	C75.426666,121.987526 70.710648,121.971497 65.148476,121.981514 
	C62.099091,121.655174 59.049702,121.328835 55.251144,120.970024 
	C54.501568,120.979103 53.751995,120.988174 52.419914,120.458977 
	C43.059048,119.904068 33.899494,120.950188 24.182919,123.954620 
	C22.247091,125.067612 20.311264,126.180603 18.304575,127.313400 
	C18.304575,127.313400 18.270681,127.378700 17.568035,127.225357 
	C16.716894,128.485764 15.865753,129.746170 15.000422,131.001160 
	C15.000422,131.001160 15.009797,131.014236 14.527063,131.230896 
	C14.474132,131.556427 14.421200,131.881943 14.318419,132.281097 
	C14.318419,132.281097 14.275711,132.359085 13.758427,132.435532 
z"/>
<path fill="#E4E8EE" opacity="1.000000" stroke="none" 
	d="
M158.007660,180.986877 
	C150.547363,179.107407 143.045120,177.375244 135.649597,175.268433 
	C133.067078,174.532745 130.747681,172.873337 128.382416,171.115097 
	C123.465309,165.103790 120.778191,159.192154 125.365799,152.125397 
	C127.383057,151.881454 130.090515,152.064896 130.638885,151.064651 
	C133.315689,146.181992 137.015274,147.989944 140.579727,149.049927 
	C145.748718,150.587067 150.849396,152.352814 155.989288,153.989349 
	C161.028992,155.593979 166.081314,157.158966 169.558929,158.249344 
	C174.422516,158.796112 177.810852,159.169296 181.196854,159.562576 
	C182.177811,159.676529 183.276871,160.216675 184.109497,159.934677 
	C190.376038,157.812256 192.083328,161.494141 192.463409,166.649811 
	C194.706741,166.932571 196.627121,167.174606 199.393066,167.523224 
	C198.532104,170.349609 198.455917,174.244644 196.932846,174.931549 
	C191.911514,177.196213 186.425140,178.563324 181.004578,179.767441 
	C176.584930,180.749191 172.000885,180.984192 167.502075,181.635498 
	C167.276276,181.668198 167.167816,182.511200 167.004730,182.976898 
	C165.254761,182.339859 163.504791,181.702805 161.205902,180.794022 
	C159.773865,180.677155 158.890762,180.832016 158.007660,180.986877 
z"/>
<path fill="#E1E6ED" opacity="1.000000" stroke="none" 
	d="
M167.400269,183.031876 
	C167.167816,182.511200 167.276276,181.668198 167.502075,181.635498 
	C172.000885,180.984192 176.584930,180.749191 181.004578,179.767441 
	C186.425140,178.563324 191.911514,177.196213 196.932846,174.931549 
	C198.455917,174.244644 198.532104,170.349609 199.393066,167.523224 
	C196.627121,167.174606 194.706741,166.932571 192.463409,166.649811 
	C192.083328,161.494141 190.376038,157.812256 184.109497,159.934677 
	C183.276871,160.216675 182.177811,159.676529 181.196854,159.562576 
	C177.810852,159.169296 174.422516,158.796112 169.558929,158.249344 
	C166.081314,157.158966 161.028992,155.593979 155.989288,153.989349 
	C150.849396,152.352814 145.748718,150.587067 140.579727,149.049927 
	C137.015274,147.989944 133.315689,146.181992 130.638885,151.064651 
	C130.090515,152.064896 127.383057,151.881454 125.340515,151.864655 
	C124.992371,151.312057 124.974548,151.138443 124.956726,150.964813 
	C124.956726,150.964813 124.988571,150.980408 125.238762,150.825439 
	C125.649834,150.102371 125.810715,149.534302 125.971603,148.966217 
	C125.971603,148.966217 125.982353,149.005295 126.268600,148.971008 
	C126.693108,148.278732 126.831367,147.620758 126.969635,146.962769 
	C127.058517,146.652802 127.231537,146.400558 128.010086,145.977478 
	C129.704224,144.548431 130.876968,143.347931 132.479263,142.107666 
	C134.920776,142.074753 136.932739,142.081619 138.765427,142.344757 
	C138.727737,143.383530 138.907043,144.852295 139.005356,144.846893 
	C140.850174,144.745529 142.685379,144.469345 145.375763,144.118484 
	C143.504898,143.209839 142.287994,142.618790 141.003281,141.667053 
	C139.621552,140.879730 138.307632,140.453110 136.964447,139.675476 
	C136.492081,138.092316 136.048981,136.860199 135.572662,135.535706 
	C137.034439,135.109436 138.339615,134.728821 139.644806,134.348190 
	C139.703629,133.852219 139.762466,133.356232 139.821289,132.860245 
	C136.818497,132.268539 133.815704,131.676819 130.391266,131.080597 
	C126.315819,130.713257 122.662010,130.350418 119.181320,129.699173 
	C119.886955,128.272507 120.419449,127.134232 121.240616,125.973724 
	C122.011925,125.681061 122.494553,125.410637 122.983955,124.838295 
	C122.978973,124.335396 122.967209,124.134407 122.931923,123.938393 
	C122.908401,123.943367 122.878334,123.904434 123.278549,123.948776 
	C128.540405,125.956764 133.351471,127.077225 138.367981,124.218857 
	C139.331177,123.670036 140.944061,124.261475 142.175003,124.662567 
	C140.602844,125.744637 139.112915,126.491005 137.622986,127.237373 
	C137.579208,127.517593 137.535431,127.797806 137.491669,128.078018 
	C139.978317,128.078018 142.464981,128.078018 144.973465,128.455536 
	C146.335892,129.559189 147.676468,130.285309 149.414551,131.012115 
	C150.871429,131.008957 151.930832,131.005096 152.958496,131.346313 
	C152.614792,132.793869 152.302811,133.896317 151.606049,135.006195 
	C149.275162,136.784714 147.329056,138.555786 144.984406,140.689575 
	C150.442719,143.863892 155.720444,146.933167 161.072922,150.376877 
	C168.923355,154.511292 176.955200,153.379547 185.374939,152.000458 
	C186.499741,152.000961 187.249603,152.001404 188.291016,152.297333 
	C193.842346,153.060852 199.132126,154.126373 204.355316,153.864410 
	C213.414307,153.410065 220.103745,157.190170 225.462051,163.537338 
	C224.185333,166.529938 223.107056,169.417114 221.702225,172.135513 
	C221.269531,172.972809 219.726746,174.039459 219.063217,173.829391 
	C212.859283,171.865158 209.025375,178.614136 203.199051,178.062134 
	C202.630875,178.008301 201.873337,179.952866 201.203705,180.969818 
	C202.387512,181.606735 203.648880,182.884628 204.739624,182.752609 
	C207.339874,182.437881 209.845566,181.401413 212.415146,180.759415 
	C216.015335,179.859940 218.316345,180.778580 218.012573,185.040924 
	C212.941086,186.028946 207.779129,188.165833 202.816193,187.775055 
	C191.092361,186.851929 179.463226,184.726212 167.400269,183.031876 
M146.595245,134.961411 
	C146.955994,134.778854 147.316742,134.596298 147.677490,134.413742 
	C147.160446,134.432999 146.643417,134.452271 146.595245,134.961411 
z"/>
<path fill="#CDD4DC" opacity="1.000000" stroke="none" 
	d="
M251.003662,147.003296 
	C249.575043,147.659821 248.146423,148.316360 246.457581,148.702209 
	C246.262497,147.789993 246.327637,147.148483 246.475739,145.690125 
	C244.683533,148.318878 243.421631,150.169815 241.772064,152.008087 
	C235.127319,150.692139 242.856491,148.903000 241.278458,147.437180 
	C240.981033,147.719711 240.683624,148.002228 240.386200,148.284760 
	C239.243774,147.201385 238.101334,146.118011 237.000031,144.694672 
	C238.360977,142.903137 239.680801,141.451569 241.359283,139.935211 
	C242.145920,138.577484 242.573868,137.284561 243.382401,136.003510 
	C245.159515,137.307465 246.556046,138.599548 247.952576,139.891632 
	C248.165161,137.776154 247.335083,136.205093 247.126694,134.555511 
	C246.695755,131.144424 244.913193,132.074020 242.702850,133.021790 
	C241.935043,133.363571 241.466187,133.685379 240.622620,134.007401 
	C239.498505,134.005997 238.749069,134.004349 238.023804,133.683365 
	C238.365295,132.576614 238.682648,131.789230 239.394775,131.000076 
	C246.024780,130.100693 247.227875,128.938385 245.966125,124.661270 
	C245.023407,122.303253 241.820404,120.618721 245.312866,118.151161 
	C246.033844,118.821465 246.482208,119.309792 246.844589,119.855247 
	C250.072662,124.714340 251.948959,131.320633 260.164734,130.222626 
	C261.567810,131.669403 262.775330,132.838470 263.654785,134.159546 
	C261.610229,135.567947 259.893646,136.824341 258.117493,138.502869 
	C258.311676,145.616318 258.565430,152.307587 258.581116,159.182205 
	C257.604004,159.909775 256.864960,160.454010 256.125946,160.998260 
	C254.424576,156.588043 252.723206,152.177841 251.268356,147.221191 
	C251.514893,145.897308 251.514893,145.119873 251.514893,144.342422 
	C251.211349,144.365112 250.907806,144.387802 250.604248,144.410492 
	C250.737396,145.274750 250.870529,146.139023 251.003662,147.003296 
z"/>
<path fill="#DDE2EA" opacity="1.000000" stroke="none" 
	d="
M218.338409,185.001617 
	C218.316345,180.778580 216.015335,179.859940 212.415146,180.759415 
	C209.845566,181.401413 207.339874,182.437881 204.739624,182.752609 
	C203.648880,182.884628 202.387512,181.606735 201.203705,180.969818 
	C201.873337,179.952866 202.630875,178.008301 203.199051,178.062134 
	C209.025375,178.614136 212.859283,171.865158 219.063217,173.829391 
	C219.726746,174.039459 221.269531,172.972809 221.702225,172.135513 
	C223.107056,169.417114 224.185333,166.529938 225.462051,163.537338 
	C220.103745,157.190170 213.414307,153.410065 204.355316,153.864410 
	C199.132126,154.126373 193.842346,153.060852 188.575806,152.004379 
	C190.645859,151.276962 192.766556,151.348984 194.784821,150.928833 
	C196.259918,150.621750 197.600220,149.667175 199.333832,149.000702 
	C200.111374,148.999481 200.555679,148.998795 201.269516,149.285065 
	C205.735138,150.438950 210.089325,150.857666 214.093033,152.269958 
	C221.480255,154.875778 227.857788,153.033798 234.302826,149.036194 
	C234.731445,150.718185 234.866028,152.359329 234.778900,154.302444 
	C234.032211,155.895416 233.351517,157.146927 233.012177,158.485016 
	C232.088486,162.127548 232.504181,167.596542 230.233231,169.112701 
	C224.885208,172.683273 224.170868,178.063522 222.010391,182.980072 
	C220.895020,183.640823 219.779648,184.301575 218.338409,185.001617 
z"/>
<path fill="#D5DCE4" opacity="1.000000" stroke="none" 
	d="
M263.982819,134.007538 
	C262.775330,132.838470 261.567810,131.669403 260.180023,129.903015 
	C260.041840,128.880219 260.083954,128.454727 260.563049,128.020020 
	C263.948334,127.092972 267.755829,129.989914 270.398865,125.986038 
	C274.460388,123.958443 278.131287,121.926849 281.802155,119.895248 
	C279.341125,128.899887 277.378815,138.082489 274.250458,146.848984 
	C272.024292,153.087326 268.314514,158.813461 265.066162,164.656616 
	C264.334259,165.973175 262.767792,166.825775 261.268433,167.465485 
	C261.644745,163.359665 262.338135,159.680313 263.378906,155.940506 
	C264.882904,154.202103 266.171143,152.598679 267.170868,150.831970 
	C269.975220,145.876221 264.486938,143.081787 263.964844,138.560181 
	C263.974762,136.766617 263.978790,135.387085 263.982819,134.007538 
z"/>
<path fill="#DDE2EA" opacity="1.000000" stroke="none" 
	d="
M141.677551,101.389496 
	C159.241959,98.591202 176.724533,94.901161 194.396912,93.279678 
	C208.276031,92.006241 222.389694,93.288795 236.459564,94.021988 
	C231.079163,95.911858 225.842209,97.877655 219.950989,96.982742 
	C215.734283,96.342201 211.328476,96.946548 206.673386,96.994911 
	C205.895096,96.993149 205.450485,96.991943 204.710785,96.695770 
	C196.990799,96.648804 189.487671,96.309731 182.159866,97.286278 
	C171.893860,98.654381 161.739288,100.910904 151.590103,103.040337 
	C150.247070,103.322121 149.216064,105.091164 147.860229,106.461166 
	C145.807724,107.523911 143.935516,108.296906 142.012222,108.632721 
	C141.866608,105.926865 141.772079,103.658180 141.677551,101.389496 
z"/>
<path fill="#CDD4DC" opacity="1.000000" stroke="none" 
	d="
M56.000317,121.002487 
	C59.049702,121.328835 62.099091,121.655174 65.793289,122.271332 
	C71.292686,123.371086 76.147255,124.181038 81.413803,124.996147 
	C84.215149,125.336342 86.604523,125.671371 89.028992,126.353180 
	C89.518532,130.150818 89.189545,133.904617 95.042366,132.370422 
	C96.520660,131.982910 98.977234,135.327499 100.984261,136.957108 
	C86.589806,134.275986 72.195343,131.594879 57.309704,128.523804 
	C55.879234,127.755196 54.939945,127.376572 54.059456,126.643394 
	C54.745613,124.526726 55.372967,122.764603 56.000317,121.002487 
z"/>
<path fill="#BBC2C9" opacity="1.000000" stroke="none" 
	d="
M281.840607,119.578850 
	C278.131287,121.926849 274.460388,123.958443 270.588837,125.718124 
	C279.366638,118.923409 281.040283,114.718040 277.999451,106.310898 
	C272.890930,105.721367 272.472717,114.671219 265.385620,112.520493 
	C267.731537,109.225449 269.615509,106.761414 271.270203,104.151970 
	C271.817108,103.289497 271.772675,102.052017 272.117249,100.712112 
	C272.213348,99.761612 272.190765,99.084999 272.168213,98.408394 
	C271.411774,98.914642 270.655334,99.420891 269.679901,99.660690 
	C268.306152,99.265503 267.151428,99.136757 265.635803,98.992874 
	C263.901703,97.396172 262.528473,95.814606 261.155212,94.233032 
	C266.146454,94.196991 271.137726,94.160942 276.575134,94.577858 
	C276.429413,99.046341 277.775574,101.627289 282.153381,101.964279 
	C282.354370,106.289223 282.555389,110.614174 282.439911,115.471207 
	C282.037048,116.664314 281.950684,117.325340 281.864319,117.986359 
	C281.869232,118.411720 281.874146,118.837090 281.840607,119.578850 
z"/>
<path fill="#D6B0AF" opacity="1.000000" stroke="none" 
	d="
M141.308044,101.337189 
	C141.772079,103.658180 141.866608,105.926865 141.830505,108.914337 
	C137.487701,112.449600 133.275528,115.266083 128.876480,117.807480 
	C128.314880,117.303749 127.940163,117.075096 127.729233,116.535934 
	C131.742096,113.033035 135.591171,109.840637 139.440247,106.648239 
	C137.792831,105.306931 136.855087,104.883171 136.258148,105.169632 
	C127.156708,109.537163 118.063072,113.926117 109.088943,118.545776 
	C108.183212,119.012024 108.062332,121.002922 107.267563,122.453857 
	C106.144936,122.845917 105.331955,123.070381 104.610962,123.269447 
	C105.183678,121.057541 105.684067,119.124969 106.184448,117.192406 
	C109.485413,115.014969 112.931831,113.026657 116.058205,110.622208 
	C123.428688,104.953697 132.610672,104.292953 141.308044,101.337189 
z"/>
<path fill="#D8DDE5" opacity="1.000000" stroke="none" 
	d="
M101.336853,136.987167 
	C98.977234,135.327499 96.520660,131.982910 95.042366,132.370422 
	C89.189545,133.904617 89.518532,130.150818 89.427200,126.350006 
	C97.009064,127.100502 104.227806,128.200943 111.340042,129.694763 
	C111.823860,133.040222 112.414192,135.992294 113.004517,138.944382 
	C112.396049,139.441803 111.622253,140.478699 111.205383,140.350937 
	C107.994431,139.366882 104.852676,138.157028 101.336853,136.987167 
z"/>
<path fill="#D5DCE4" opacity="1.000000" stroke="none" 
	d="
M207.007050,96.995461 
	C211.328476,96.946548 215.734283,96.342201 219.950989,96.982742 
	C225.842209,97.877655 231.079163,95.911858 236.754562,94.315163 
	C237.441940,94.030281 237.894714,94.038330 238.677490,94.506279 
	C238.654510,98.676094 238.301529,102.386017 237.622299,106.070366 
	C236.859848,106.015816 236.423676,105.986832 235.927902,105.604385 
	C227.859299,103.165855 219.839844,101.119423 211.849731,98.964264 
	C210.179962,98.513885 208.618454,97.662209 207.007050,96.995461 
z"/>
<path fill="#E1E6ED" opacity="1.000000" stroke="none" 
	d="
M111.446548,129.301392 
	C104.227806,128.200943 97.009064,127.100502 89.392105,126.003227 
	C86.604523,125.671371 84.215149,125.336342 81.413261,124.626312 
	C80.998482,123.512138 80.996216,122.772972 80.993950,122.033806 
	C84.087387,122.314865 87.182655,122.577240 90.273827,122.881332 
	C94.960312,123.342377 99.503120,123.533463 102.656013,118.962662 
	C103.243774,118.110588 104.503853,117.722282 105.819054,117.156174 
	C105.684067,119.124969 105.183678,121.057541 104.610962,123.269447 
	C105.331955,123.070381 106.144936,122.845917 107.324051,122.502342 
	C107.690193,122.383232 107.741486,122.522942 107.566589,122.875412 
	C109.429054,124.178101 111.466431,125.128326 113.369202,126.393883 
	C112.638588,127.573265 112.042572,128.437332 111.446548,129.301392 
z"/>
<path fill="#D1D6DF" opacity="1.000000" stroke="none" 
	d="
M222.380600,182.973755 
	C224.170868,178.063522 224.885208,172.683273 230.233231,169.112701 
	C232.504181,167.596542 232.088486,162.127548 233.012177,158.485016 
	C233.351517,157.146927 234.032211,155.895416 235.037476,154.526062 
	C235.119202,156.448746 234.434509,158.449005 234.429153,160.451096 
	C234.425934,161.655151 235.481293,162.862015 236.046387,164.467590 
	C235.698318,166.987396 235.364777,169.107208 235.031250,171.227036 
	C232.864670,177.156036 227.873703,180.130753 222.380600,182.973755 
z"/>
<path fill="#D5DCE4" opacity="1.000000" stroke="none" 
	d="
M260.758484,94.160988 
	C262.528473,95.814606 263.901703,97.396172 265.638794,99.334999 
	C266.023651,100.148705 266.044647,100.605148 266.034729,101.030258 
	C266.003815,100.998932 266.059723,101.064827 265.614868,101.040863 
	C262.768890,101.290527 260.355835,101.487022 257.969238,101.854851 
	C253.799164,102.497551 249.376450,104.965668 246.045517,99.592041 
	C245.958023,98.146355 245.929581,97.092270 246.328156,96.027031 
	C248.633484,96.236771 250.521408,96.670410 252.385971,96.586342 
	C253.281250,96.545975 254.132431,95.527260 255.003571,94.951607 
	C256.789612,94.664047 258.575684,94.376488 260.758484,94.160988 
z"/>
<path fill="#963B35" opacity="1.000000" stroke="none" 
	d="
M13.896622,144.905350 
	C13.759183,144.699234 13.621743,144.493118 13.322888,143.535309 
	C12.916034,141.103424 12.670595,139.423233 12.425157,137.743027 
	C12.613927,136.979416 12.802698,136.215790 13.129692,135.056549 
	C13.267916,134.660934 13.251771,134.595657 13.251771,134.595657 
	C13.326152,134.390610 13.400534,134.185562 13.772671,133.566757 
	C14.290423,132.927551 14.358851,132.662903 14.275711,132.359085 
	C14.275711,132.359085 14.318419,132.281097 14.562429,132.122955 
	C14.874226,131.647964 14.942013,131.331100 15.009798,131.014236 
	C15.009797,131.014236 15.000422,131.001160 15.306910,130.896332 
	C16.499159,129.653900 17.384920,128.516296 18.270679,127.378700 
	C18.270681,127.378700 18.304575,127.313400 18.705143,127.303215 
	C22.173164,127.287598 22.463810,129.135742 21.889032,131.512955 
	C21.436211,133.385788 20.924881,135.244461 20.202236,137.300537 
	C19.371723,139.180908 18.992456,140.992081 18.120392,142.522430 
	C17.366861,143.844757 16.053205,144.847885 14.987158,145.992126 
	C14.851627,145.874191 14.716097,145.756271 14.376398,145.361511 
	C14.172229,145.084671 13.896622,144.905350 13.896622,144.905350 
z"/>
<path fill="#CDD4DC" opacity="1.000000" stroke="none" 
	d="
M24.980488,123.909279 
	C33.899494,120.950188 43.059048,119.904068 52.439228,121.014893 
	C51.174900,121.713875 49.878937,122.046997 48.609898,121.964737 
	C44.647465,121.707901 43.566097,123.381851 44.578709,126.965004 
	C38.436440,127.005013 32.721233,127.032898 26.709639,126.909782 
	C25.935663,125.808945 25.458076,124.859116 24.980488,123.909279 
z"/>
<path fill="#9A9DA7" opacity="1.000000" stroke="none" 
	d="
M111.340042,129.694763 
	C112.042572,128.437332 112.638588,127.573265 113.511787,126.396362 
	C113.788971,126.083519 114.079193,126.055412 114.391464,126.170357 
	C116.786469,126.188858 118.869209,126.092415 120.951950,125.995972 
	C120.419449,127.134232 119.886955,128.272507 119.180382,130.086945 
	C118.676559,132.169617 118.346809,133.576126 118.008240,134.581848 
	C117.308678,133.158737 116.617943,132.136414 115.927208,131.114090 
	C115.307404,131.695114 114.124817,132.342392 114.183815,132.843506 
	C114.310410,133.918839 114.900505,135.087509 115.655670,135.879730 
	C116.044250,136.287384 117.194130,135.969360 118.044067,136.302551 
	C118.122902,136.840591 118.157677,137.055328 118.224548,137.559799 
	C118.891136,138.517883 119.525635,139.186234 120.515457,139.840332 
	C121.578766,139.887466 122.286743,139.948853 122.796883,140.259186 
	C121.424126,140.867310 120.249207,141.226456 119.074295,141.585602 
	C117.302689,140.723526 115.531075,139.861465 113.381989,138.971893 
	C112.414192,135.992294 111.823860,133.040222 111.340042,129.694763 
z"/>
<path fill="#D6B0AF" opacity="1.000000" stroke="none" 
	d="
M24.581703,123.931946 
	C25.458076,124.859116 25.935663,125.808945 26.746929,127.226868 
	C27.742599,128.512482 28.404593,129.330032 29.066586,130.147568 
	C26.987440,132.289536 24.908295,134.431488 22.082037,136.741547 
	C21.036461,136.976242 20.737999,137.042831 20.439537,137.109421 
	C20.924881,135.244461 21.436211,133.385788 21.889032,131.512955 
	C22.463810,129.135742 22.173164,127.287598 18.740574,127.293320 
	C20.311264,126.180603 22.247091,125.067612 24.581703,123.931946 
z"/>
<path fill="#D1D6DF" opacity="1.000000" stroke="none" 
	d="
M45.005768,126.952888 
	C43.566097,123.381851 44.647465,121.707901 48.609898,121.964737 
	C49.878937,122.046997 51.174900,121.713875 52.730480,121.284027 
	C53.751995,120.988174 54.501568,120.979103 55.625732,120.986252 
	C55.372967,122.764603 54.745613,124.526726 53.609509,126.647514 
	C50.402428,126.988426 47.704098,126.970657 45.005768,126.952888 
z"/>
<path fill="#BBC2C9" opacity="1.000000" stroke="none" 
	d="
M44.578709,126.965004 
	C47.704098,126.970657 50.402428,126.988426 53.550705,127.002068 
	C54.939945,127.376572 55.879234,127.755196 56.859795,128.451675 
	C47.825447,127.941177 38.740681,126.917580 29.458290,130.092194 
	C28.404593,129.330032 27.742599,128.512482 27.043316,127.377869 
	C32.721233,127.032898 38.436440,127.005013 44.578709,126.965004 
z"/>
<path fill="#CDD4DC" opacity="1.000000" stroke="none" 
	d="
M237.948563,106.095932 
	C238.301529,102.386017 238.654510,98.676094 239.015686,94.537109 
	C240.072403,94.092812 241.120895,94.077583 242.572266,94.329613 
	C242.975327,94.766754 242.975540,94.936646 242.708771,95.354706 
	C242.221863,99.102402 242.001938,102.601913 241.502808,106.239449 
	C240.131943,106.283623 239.040253,106.189774 237.948563,106.095932 
z"/>
<path fill="#AEAFB9" opacity="1.000000" stroke="none" 
	d="
M263.031525,156.000946 
	C262.338135,159.680313 261.644745,163.359665 260.913696,167.447998 
	C256.390350,168.061157 257.281158,164.136414 256.152802,161.369965 
	C256.864960,160.454010 257.604004,159.909775 258.895355,158.978851 
	C259.737457,157.651794 260.027222,156.711395 260.492096,155.808777 
	C260.667206,155.846542 261.033539,155.844086 261.114136,156.033478 
	C261.807007,156.148911 262.419281,156.074936 263.031525,156.000946 
z"/>
<path fill="#DDE2EA" opacity="1.000000" stroke="none" 
	d="
M80.568314,122.018677 
	C80.996216,122.772972 80.998482,123.512138 81.001282,124.621140 
	C76.147255,124.181038 71.292686,123.371086 66.216370,122.258301 
	C70.710648,121.971497 75.426666,121.987526 80.568314,122.018677 
z"/>
<path fill="#D1D6DF" opacity="1.000000" stroke="none" 
	d="
M124.598450,151.027710 
	C124.974548,151.138443 124.992371,151.312057 125.035477,151.746414 
	C120.778191,159.192154 123.465309,165.103790 128.223923,170.804382 
	C119.476715,168.515350 119.253998,157.964844 124.598450,151.027710 
z"/>
<path fill="#9A9DA7" opacity="1.000000" stroke="none" 
	d="
M20.202236,137.300537 
	C20.737999,137.042831 21.036461,136.976242 21.767859,136.757263 
	C22.319746,136.772781 22.438698,136.940689 22.320925,137.738434 
	C22.064543,138.611099 22.044882,138.853897 22.025223,139.096680 
	C22.493322,146.212387 20.224525,148.718246 15.079620,146.328979 
	C16.053205,144.847885 17.366861,143.844757 18.120392,142.522430 
	C18.992456,140.992081 19.371723,139.180908 20.202236,137.300537 
z"/>
<path fill="#BBC2C9" opacity="1.000000" stroke="none" 
	d="
M242.159729,152.020752 
	C243.421631,150.169815 244.683533,148.318878 246.475739,145.690125 
	C246.327637,147.148483 246.262497,147.789993 246.099731,148.718658 
	C245.056122,154.421112 242.929276,159.323868 239.313095,163.860291 
	C239.007874,164.007950 239.018616,164.018616 239.005127,163.624100 
	C240.047668,159.493301 241.103699,155.757034 242.159729,152.020752 
z"/>
<path fill="#AEAFB9" opacity="1.000000" stroke="none" 
	d="
M119.488564,141.722000 
	C120.249207,141.226456 121.424126,140.867310 123.261795,140.239594 
	C128.280930,139.989532 132.637329,140.008011 136.993713,140.026505 
	C138.307632,140.453110 139.621552,140.879730 140.648010,141.654312 
	C139.888611,142.031021 139.416656,142.059753 138.944717,142.088486 
	C136.932739,142.081619 134.920776,142.074753 132.051788,142.064529 
	C129.764206,142.080612 128.333649,142.100052 126.903091,142.119492 
	C124.569672,142.032455 122.236252,141.945419 119.488564,141.722000 
z"/>
<path fill="#AEAFB9" opacity="1.000000" stroke="none" 
	d="
M282.138275,101.526321 
	C277.775574,101.627289 276.429413,99.046341 277.041443,94.639229 
	C283.712250,92.855301 281.622375,97.930283 282.138275,101.526321 
z"/>
<path fill="#DDE2EA" opacity="1.000000" stroke="none" 
	d="
M242.975739,95.106537 
	C242.975540,94.936646 242.975327,94.766754 242.965851,94.343140 
	C246.773712,94.189369 250.590820,94.289330 254.705750,94.670448 
	C254.132431,95.527260 253.281250,96.545975 252.385971,96.586342 
	C250.521408,96.670410 248.633484,96.236771 246.045181,95.892303 
	C244.548706,95.547997 243.762222,95.327263 242.975739,95.106537 
z"/>
<path fill="#BBC2C9" opacity="1.000000" stroke="none" 
	d="
M235.320160,171.038055 
	C235.364777,169.107208 235.698318,166.987396 236.414917,164.456497 
	C237.538208,164.036484 238.278412,164.027557 239.018616,164.018616 
	C239.018616,164.018616 239.007874,164.007950 239.012131,164.011841 
	C240.535645,167.617401 238.252487,169.323074 235.320160,171.038055 
z"/>
<path fill="#D1D6DF" opacity="1.000000" stroke="none" 
	d="
M126.983253,142.445923 
	C128.333649,142.100052 129.764206,142.080612 131.622253,142.104309 
	C130.876968,143.347931 129.704224,144.548431 128.218185,145.873520 
	C127.624405,144.922852 127.343910,143.847610 126.983253,142.445923 
z"/>
<path fill="#9A9DA7" opacity="1.000000" stroke="none" 
	d="
M12.191699,137.950180 
	C12.670595,139.423233 12.916034,141.103424 13.159523,143.201538 
	C12.757796,141.798737 12.358019,139.978027 12.191699,137.950180 
z"/>
<path fill="#D6B0AF" opacity="1.000000" stroke="none" 
	d="
M17.919357,127.302032 
	C17.384920,128.516296 16.499159,129.653900 15.314005,130.899048 
	C15.865753,129.746170 16.716894,128.485764 17.919357,127.302032 
z"/>
<path fill="#D1D6DF" opacity="1.000000" stroke="none" 
	d="
M126.730316,147.138306 
	C126.831367,147.620758 126.693108,148.278732 126.255096,148.953674 
	C126.133904,148.418381 126.312462,147.866119 126.730316,147.138306 
z"/>
<path fill="#D5DCE4" opacity="1.000000" stroke="none" 
	d="
M282.138672,117.816605 
	C281.950684,117.325340 282.037048,116.664314 282.362946,115.916016 
	C282.539337,116.434784 282.476166,117.040810 282.138672,117.816605 
z"/>
<path fill="#E1E6ED" opacity="1.000000" stroke="none" 
	d="
M158.383942,180.997757 
	C158.890762,180.832016 159.773865,180.677155 160.839661,180.777679 
	C160.268311,181.024918 159.514252,181.016785 158.383942,180.997757 
z"/>
<path fill="#D1D6DF" opacity="1.000000" stroke="none" 
	d="
M125.709473,149.119354 
	C125.810715,149.534302 125.649834,150.102371 125.226303,150.823059 
	C125.124886,150.407944 125.286125,149.840210 125.709473,149.119354 
z"/>
<path fill="#D6B0AF" opacity="1.000000" stroke="none" 
	d="
M14.768432,131.122559 
	C14.942013,131.331100 14.874226,131.647964 14.587355,132.086151 
	C14.421200,131.881943 14.474132,131.556427 14.768432,131.122559 
z"/>
<path fill="#9A9DA7" opacity="1.000000" stroke="none" 
	d="
M13.797419,145.032944 
	C13.896622,144.905350 14.172229,145.084671 14.189376,145.167480 
	C14.206523,145.250305 13.917923,145.396179 13.917923,145.396179 
	C13.917923,145.396179 13.698215,145.160538 13.797419,145.032944 
z"/>
<path fill="#D6B0AF" opacity="1.000000" stroke="none" 
	d="
M14.017069,132.397308 
	C14.358851,132.662903 14.290423,132.927551 13.886713,133.260071 
	C13.721476,133.056610 13.739951,132.746063 14.017069,132.397308 
z"/>
<path fill="#9A9DA7" opacity="1.000000" stroke="none" 
	d="
M13.151318,134.505157 
	C13.251771,134.595657 13.267916,134.660934 13.241274,134.679382 
	C13.214633,134.697845 12.896676,134.679565 12.896676,134.679565 
	C12.896676,134.679565 13.050863,134.414642 13.151318,134.505157 
z"/>
<path fill="#D6B0AF" opacity="1.000000" stroke="none" 
	d="
M22.149807,138.945328 
	C22.044882,138.853897 22.064543,138.611099 22.234552,138.034760 
	C22.348066,138.065460 22.311230,138.429718 22.149807,138.945328 
z"/>
<path fill="#D1D6DF" opacity="1.000000" stroke="none" 
	d="
M200.999985,148.998108 
	C200.555679,148.998795 200.111374,148.999481 198.944519,148.998917 
	C195.815262,148.331161 193.408539,147.664658 191.001617,146.575836 
	C190.289642,144.386719 189.647369,141.130402 188.854935,141.093445 
	C183.461868,140.841934 178.681259,132.832153 173.212189,139.644699 
	C171.325394,138.284103 169.795166,136.271103 168.153931,136.176102 
	C164.044235,135.938263 163.919052,134.018845 165.285263,130.965912 
	C165.892792,130.625839 166.215668,130.320480 166.538544,130.015121 
	C166.328659,129.833069 166.118774,129.651031 165.908890,129.468979 
	C165.605728,129.979111 165.302551,130.489258 164.642090,131.005417 
	C162.856506,131.674301 161.428253,132.337143 159.600128,132.999634 
	C158.133911,132.999115 157.067566,132.998947 155.947144,132.859161 
	C155.806412,132.670090 155.719742,132.620636 155.633072,132.571167 
	C155.754974,132.714523 155.876877,132.857864 155.934113,133.359787 
	C154.576569,134.145172 153.283707,134.571976 151.990845,134.998779 
	C152.302811,133.896317 152.614792,132.793869 153.301102,131.312576 
	C154.454315,129.947968 155.233185,128.962204 156.308105,127.821579 
	C156.509430,126.799690 156.731857,125.536911 156.251053,125.151558 
	C155.368744,124.444412 154.071838,124.254539 153.046051,123.487473 
	C156.552246,122.217300 159.919571,121.089317 163.377213,120.449173 
	C169.220642,119.367325 175.121231,118.594193 180.995468,118.072418 
	C180.993149,119.607521 180.993149,120.761459 180.993149,122.420486 
	C191.483368,120.232796 201.725372,118.096863 212.396210,115.976929 
	C217.784241,115.280632 222.751755,114.617561 227.690430,113.783745 
	C228.213455,113.695442 228.567337,112.605232 229.288666,111.696198 
	C237.131653,110.101761 244.093536,112.458374 251.027405,115.169250 
	C251.003708,115.652863 250.997696,115.845978 250.604462,116.036400 
	C247.425674,115.819321 244.634125,115.604942 240.739243,115.305840 
	C242.691971,116.538490 243.846176,117.267075 245.000381,117.995667 
	C241.820404,120.618721 245.023407,122.303253 245.578384,124.655762 
	C239.507263,123.702240 239.126297,124.070335 239.000000,131.001831 
	C238.682648,131.789230 238.365295,132.576614 237.791199,133.979599 
	C235.645462,135.064987 233.776886,135.654373 231.863480,135.981445 
	C226.756363,136.854446 221.762283,137.858170 218.570526,142.998199 
	C211.404709,142.074387 206.804169,147.255875 200.999985,148.998108 
z"/>
<path fill="#FDFDFD" opacity="1.000000" stroke="none" 
	d="
M180.997787,117.691254 
	C175.121231,118.594193 169.220642,119.367325 163.377213,120.449173 
	C159.919571,121.089317 156.552246,122.217300 152.596313,123.510170 
	C148.784622,124.038567 145.520935,124.182724 142.257233,124.326874 
	C140.944061,124.261475 139.331177,123.670036 138.367981,124.218857 
	C133.351471,127.077225 128.540405,125.956764 123.433945,123.652145 
	C125.147217,121.568314 127.105293,119.825439 129.063370,118.082565 
	C133.275528,115.266083 137.487701,112.449600 141.881592,109.351509 
	C143.935516,108.296906 145.807724,107.523911 148.246140,106.369034 
	C165.838730,100.755341 183.290863,99.200783 201.431488,99.972397 
	C213.231827,101.986710 224.609665,103.972282 235.987488,105.957855 
	C236.423676,105.986832 236.859848,106.015816 237.622299,106.070358 
	C239.040253,106.189774 240.131943,106.283623 241.746613,106.525101 
	C243.700775,106.926559 245.131943,107.180382 246.790558,107.739685 
	C251.679855,108.682907 256.341705,109.320656 261.168213,110.227165 
	C261.964417,111.031578 262.596008,111.567238 263.037048,112.342659 
	C262.192474,113.352776 261.538452,114.123123 260.438782,114.921158 
	C257.010468,114.925484 254.027786,114.902130 251.045105,114.878769 
	C244.093536,112.458374 237.131653,110.101761 228.844757,111.673920 
	C225.740753,111.927345 223.369598,111.919395 220.712357,111.648422 
	C215.396103,111.721939 210.350906,111.917961 205.342148,112.454346 
	C202.841599,112.722122 200.407669,113.612129 197.616150,114.231010 
	C196.636917,114.299576 195.985107,114.357826 194.932678,114.321617 
	C192.356079,114.941719 190.180084,115.656281 187.665970,116.343712 
	C186.650391,116.326958 185.972931,116.337326 184.977997,116.261803 
	C184.049774,116.659355 183.439072,117.142792 182.524597,117.670273 
	C181.813171,117.706635 181.405472,117.698944 180.997787,117.691254 
z"/>
<path fill="#D8DDE5" opacity="1.000000" stroke="none" 
	d="
M151.606049,135.006195 
	C153.283707,134.571976 154.576569,134.145172 155.934723,133.359177 
	C156.000000,133.000000 156.001221,132.998779 156.001221,132.998779 
	C157.067566,132.998947 158.133911,132.999115 159.600967,133.377350 
	C161.161865,138.562469 167.859283,143.554825 172.822205,144.083374 
	C178.916428,144.732391 184.944931,145.998688 191.001831,146.998169 
	C193.408539,147.664658 195.815262,148.331161 198.611298,148.999451 
	C197.600220,149.667175 196.259918,150.621750 194.784821,150.928833 
	C192.766556,151.348984 190.645859,151.276962 188.284271,151.708878 
	C187.249603,152.001404 186.499741,152.000961 185.081299,151.703125 
	C176.607880,150.937958 168.803024,150.470200 160.998169,150.002441 
	C155.720444,146.933167 150.442719,143.863892 144.984406,140.689575 
	C147.329056,138.555786 149.275162,136.784714 151.606049,135.006195 
z"/>
<path fill="#D8DDE5" opacity="1.000000" stroke="none" 
	d="
M136.964447,139.675476 
	C132.637329,140.008011 128.280930,139.989532 123.459641,139.990631 
	C122.286743,139.948853 121.578766,139.887466 120.514847,139.557480 
	C120.164215,138.909363 120.169510,138.529861 120.473465,137.931732 
	C122.509865,137.369919 124.247604,137.026703 125.968231,136.686874 
	C125.392258,135.447220 124.766289,134.099945 124.321754,133.143158 
	C126.727959,132.380264 128.770432,131.732697 130.812912,131.085114 
	C133.815704,131.676819 136.818497,132.268539 139.821289,132.860245 
	C139.762466,133.356232 139.703629,133.852219 139.644806,134.348190 
	C138.339615,134.728821 137.034439,135.109436 135.572662,135.535706 
	C136.048981,136.860199 136.492081,138.092316 136.964447,139.675476 
z"/>
<path fill="#BBC2C9" opacity="1.000000" stroke="none" 
	d="
M142.175003,124.662575 
	C145.520935,124.182724 148.784622,124.038567 152.498047,123.871719 
	C154.071838,124.254539 155.368744,124.444412 156.251053,125.151558 
	C156.731857,125.536911 156.509430,126.799690 155.890503,127.822624 
	C153.786865,127.992874 152.396866,128.007248 150.575500,128.009796 
	C148.413284,128.024658 146.682465,128.051331 144.951630,128.078003 
	C142.464981,128.078018 139.978317,128.078018 137.491669,128.078018 
	C137.535431,127.797806 137.579208,127.517593 137.622986,127.237373 
	C139.112915,126.491005 140.602844,125.744637 142.175003,124.662575 
z"/>
<path fill="#AEAFB9" opacity="1.000000" stroke="none" 
	d="
M130.391266,131.080597 
	C128.770432,131.732697 126.727959,132.380264 124.321754,133.143158 
	C124.766289,134.099945 125.392258,135.447220 125.968231,136.686874 
	C124.247604,137.026703 122.509865,137.369919 120.270172,137.711853 
	C119.242973,137.563751 118.717712,137.416916 118.192459,137.270081 
	C118.157677,137.055328 118.122902,136.840591 118.043045,136.053436 
	C117.997955,135.480988 118.017059,134.982620 118.017059,134.982620 
	C118.346809,133.576126 118.676559,132.169617 119.007248,130.375351 
	C122.662010,130.350418 126.315819,130.713257 130.391266,131.080597 
z"/>
<path fill="#DDE2EA" opacity="1.000000" stroke="none" 
	d="
M161.072922,150.376877 
	C168.803024,150.470200 176.607880,150.937958 184.706360,151.703049 
	C176.955200,153.379547 168.923355,154.511292 161.072922,150.376877 
z"/>
<path fill="#AEAFB9" opacity="1.000000" stroke="none" 
	d="
M128.876480,117.807480 
	C127.105293,119.825439 125.147217,121.568314 123.033737,123.607803 
	C122.878334,123.904434 122.908401,123.943367 122.713547,124.029510 
	C122.671516,124.457169 122.824348,124.798691 122.977180,125.140213 
	C122.494553,125.410637 122.011925,125.681061 121.240616,125.973724 
	C118.869209,126.092415 116.786469,126.188858 114.375702,125.901451 
	C114.035088,125.338890 114.022507,125.160179 114.376419,124.924988 
	C116.372612,124.170532 118.145081,123.688919 119.601341,122.728065 
	C122.352097,120.913086 124.920982,118.822479 127.565445,116.846436 
	C127.940163,117.075096 128.314880,117.303749 128.876480,117.807480 
z"/>
<path fill="#D8DDE5" opacity="1.000000" stroke="none" 
	d="
M138.765427,142.344742 
	C139.416656,142.059753 139.888611,142.031021 140.715820,142.015015 
	C142.287994,142.618790 143.504898,143.209839 145.375763,144.118484 
	C142.685379,144.469345 140.850174,144.745529 139.005356,144.846893 
	C138.907043,144.852295 138.727737,143.383530 138.765427,142.344742 
z"/>
<path fill="#D8DDE5" opacity="1.000000" stroke="none" 
	d="
M151.006882,128.021606 
	C152.396866,128.007248 153.786865,127.992874 155.594452,127.977463 
	C155.233185,128.962204 154.454315,129.947968 153.332825,130.967484 
	C151.930832,131.005096 150.871429,131.008957 149.582687,130.747726 
	C149.904526,129.662292 150.455704,128.841949 151.006882,128.021606 
z"/>
<path fill="#D1D6DF" opacity="1.000000" stroke="none" 
	d="
M150.575500,128.009796 
	C150.455704,128.841949 149.904526,129.662292 149.185211,130.747040 
	C147.676468,130.285309 146.335892,129.559189 144.973465,128.455536 
	C146.682465,128.051331 148.413284,128.024658 150.575500,128.009796 
z"/>
<path fill="#9A9DA7" opacity="1.000000" stroke="none" 
	d="
M146.360809,134.716476 
	C146.643417,134.452271 147.160446,134.432999 147.677490,134.413742 
	C147.316742,134.596298 146.955994,134.778854 146.360809,134.716476 
z"/>
<path fill="#FDFDFD" opacity="1.000000" stroke="none" 
	d="
M122.983955,124.838295 
	C122.824348,124.798691 122.671516,124.457169 122.737061,124.024536 
	C122.967209,124.134407 122.978973,124.335396 122.983955,124.838295 
z"/>
<path fill="#D5DCE4" opacity="1.000000" stroke="none" 
	d="
M218.998901,142.997559 
	C221.762283,137.858170 226.756363,136.854446 231.863480,135.981445 
	C233.776886,135.654373 235.645462,135.064987 237.767059,134.298950 
	C238.749069,134.004349 239.498505,134.005997 240.623169,134.435028 
	C240.999130,136.574951 240.999878,138.287476 241.000610,140.000000 
	C239.680801,141.451569 238.360977,142.903137 236.668304,144.686829 
	C235.533234,145.347916 234.771027,145.676880 233.654541,145.969543 
	C229.119949,143.957916 225.381317,139.211807 220.113174,143.814926 
	C220.037537,143.880997 219.383163,143.284714 218.998901,142.997559 
z"/>
<path fill="#AEAFB9" opacity="1.000000" stroke="none" 
	d="
M245.312866,118.151154 
	C243.846176,117.267075 242.691971,116.538490 240.739243,115.305840 
	C244.634125,115.604942 247.425674,115.819321 250.749695,116.336136 
	C252.846832,119.103310 254.411499,121.568039 255.984695,124.360954 
	C257.344116,125.127548 258.695007,125.565956 260.050415,126.342010 
	C260.078644,127.129517 260.102356,127.579376 260.126068,128.029236 
	C260.083954,128.454727 260.041840,128.880219 259.984436,129.625320 
	C251.948959,131.320633 250.072662,124.714340 246.844589,119.855247 
	C246.482208,119.309792 246.033844,118.821465 245.312866,118.151154 
z"/>
<path fill="#E1E6ED" opacity="1.000000" stroke="none" 
	d="
M234.008820,146.005829 
	C234.771027,145.676880 235.533234,145.347916 236.627167,145.026794 
	C238.101334,146.118011 239.243774,147.201385 240.386200,148.284760 
	C240.683624,148.002228 240.981033,147.719711 241.278458,147.437180 
	C242.856491,148.903000 235.127319,150.692139 241.772064,152.008087 
	C241.103699,155.757034 240.047668,159.493301 239.005127,163.624115 
	C238.278412,164.027557 237.538208,164.036484 236.429459,164.056519 
	C235.481293,162.862015 234.425934,161.655151 234.429153,160.451096 
	C234.434509,158.449005 235.119202,156.448746 235.259201,154.224091 
	C234.866028,152.359329 234.731445,150.718185 234.301300,148.662521 
	C234.006775,147.500626 234.007797,146.753220 234.008820,146.005829 
z"/>
<path fill="#9A9DA7" opacity="1.000000" stroke="none" 
	d="
M260.316986,155.771011 
	C260.027222,156.711395 259.737457,157.651794 259.133423,158.795532 
	C258.565430,152.307587 258.311676,145.616318 258.437683,138.477188 
	C259.829681,138.351288 260.841888,138.673218 261.872559,139.443344 
	C261.607391,144.973465 261.323761,150.055389 260.883026,155.200516 
	C260.531250,155.385834 260.394958,155.554932 260.316986,155.771011 
z"/>
<path fill="#D5DCE4" opacity="1.000000" stroke="none" 
	d="
M239.394775,131.000076 
	C239.126297,124.070335 239.507263,123.702240 245.613464,124.991745 
	C247.227875,128.938385 246.024780,130.100693 239.394775,131.000076 
z"/>
<path fill="#D8DDE5" opacity="1.000000" stroke="none" 
	d="
M243.001831,133.001831 
	C244.913193,132.074020 246.695755,131.144424 247.126694,134.555511 
	C247.335083,136.205093 248.165161,137.776154 247.952576,139.891632 
	C246.556046,138.599548 245.159515,137.307465 243.381927,135.629944 
	C243.001205,134.496948 243.001511,133.749390 243.001831,133.001831 
z"/>
<path fill="#AEAFB9" opacity="1.000000" stroke="none" 
	d="
M261.854095,138.995148 
	C260.841888,138.673218 259.829681,138.351288 258.497253,138.055023 
	C259.893646,136.824341 261.610229,135.567947 263.654785,134.159546 
	C263.978790,135.387085 263.974762,136.766617 263.615112,138.551254 
	C262.791046,138.969269 262.322571,138.982208 261.854095,138.995148 
z"/>
<path fill="#D1D6DF" opacity="1.000000" stroke="none" 
	d="
M242.702850,133.021790 
	C243.001511,133.749390 243.001205,134.496948 243.001343,135.618073 
	C242.573868,137.284561 242.145920,138.577484 241.359283,139.935211 
	C240.999878,138.287476 240.999130,136.574951 240.997864,134.434799 
	C241.466187,133.685379 241.935043,133.363571 242.702850,133.021790 
z"/>
<path fill="#FFFFFF" opacity="1.000000" stroke="none" 
	d="
M251.001831,147.001648 
	C250.870529,146.139023 250.737396,145.274750 250.604248,144.410492 
	C250.907806,144.387802 251.211349,144.365112 251.514893,144.342422 
	C251.514893,145.119873 251.514893,145.897308 251.255920,146.836365 
	C250.996948,146.997986 251.000000,147.000000 251.001831,147.001648 
z"/>
<path fill="#D8DDE5" opacity="1.000000" stroke="none" 
	d="
M233.654541,145.969543 
	C234.007797,146.753220 234.006775,147.500626 234.007294,148.621704 
	C227.857788,153.033798 221.480255,154.875778 214.093033,152.269958 
	C210.089325,150.857666 205.735138,150.438950 201.269516,149.285065 
	C206.804169,147.255875 211.404709,142.074387 218.570526,142.998199 
	C219.383163,143.284714 220.037537,143.880997 220.113174,143.814926 
	C225.381317,139.211807 229.119949,143.957916 233.654541,145.969543 
z"/>
<path fill="#CDD4DC" opacity="1.000000" stroke="none" 
	d="
M260.563049,128.020020 
	C260.102356,127.579376 260.078644,127.129517 260.428528,126.336670 
	C264.500153,124.338646 265.371185,121.563126 262.942871,118.870056 
	C262.808594,118.683151 262.726196,118.633034 262.643829,118.582916 
	C262.764832,118.720192 262.885834,118.857468 262.822662,119.269882 
	C260.417725,121.040939 258.196930,122.536850 255.976166,124.032768 
	C254.411499,121.568039 252.846832,119.103310 251.136932,116.338837 
	C250.997696,115.845978 251.003708,115.652863 251.027405,115.169250 
	C254.027786,114.902130 257.010468,114.925484 260.636230,115.175835 
	C262.391052,114.784035 263.502777,114.165245 264.614471,113.546463 
	C264.152161,113.065269 263.689880,112.584084 263.227570,112.102890 
	C262.596008,111.567238 261.964417,111.031578 261.308868,109.922592 
	C264.856110,106.561523 268.427368,103.773766 271.998596,100.986008 
	C271.772675,102.052017 271.817108,103.289497 271.270203,104.151970 
	C269.615509,106.761414 267.731537,109.225449 265.385620,112.520493 
	C272.472717,114.671219 272.890930,105.721367 277.999451,106.310898 
	C281.040283,114.718040 279.366638,118.923409 270.198181,125.714127 
	C267.755829,129.989914 263.948334,127.092972 260.563049,128.020020 
z"/>
<path fill="#D1D6DF" opacity="1.000000" stroke="none" 
	d="
M261.872559,139.443344 
	C262.322571,138.982208 262.791046,138.969269 263.609253,138.965271 
	C264.486938,143.081787 269.975220,145.876221 267.170868,150.831970 
	C266.171143,152.598679 264.882904,154.202103 263.378906,155.940521 
	C262.419281,156.074936 261.807007,156.148911 261.109985,155.857666 
	C261.025208,155.492462 261.040131,155.137314 261.040131,155.137314 
	C261.323761,150.055389 261.607391,144.973465 261.872559,139.443344 
z"/>
<path fill="#D1D6DF" opacity="1.000000" stroke="none" 
	d="
M201.008987,99.943665 
	C183.290863,99.200783 165.838730,100.755341 148.426453,106.079285 
	C149.216064,105.091164 150.247070,103.322121 151.590103,103.040337 
	C161.739288,100.910904 171.893860,98.654381 182.159866,97.286278 
	C189.487671,96.309731 196.990799,96.648804 204.490967,96.962807 
	C203.380493,98.331093 202.194733,99.137375 201.008987,99.943665 
z"/>
<path fill="#CDD4DC" opacity="1.000000" stroke="none" 
	d="
M201.431488,99.972397 
	C202.194733,99.137375 203.380493,98.331093 204.786057,97.257767 
	C205.450485,96.991943 205.895096,96.993149 206.673386,96.994911 
	C208.618454,97.662209 210.179962,98.513885 211.849731,98.964264 
	C219.839844,101.119423 227.859299,103.165855 235.927902,105.604393 
	C224.609665,103.972282 213.231827,101.986710 201.431488,99.972397 
z"/>
<path fill="#AEAFB9" opacity="1.000000" stroke="none" 
	d="
M272.117249,100.712112 
	C268.427368,103.773766 264.856110,106.561523 261.144226,109.653839 
	C256.341705,109.320656 251.679855,108.682907 247.131531,107.591682 
	C247.799271,106.484077 248.353470,105.829948 249.375504,105.123688 
	C253.270828,105.049675 256.791626,105.496307 260.092621,104.839073 
	C262.246735,104.410172 264.081757,102.378525 266.059723,101.064835 
	C266.059723,101.064827 266.003815,100.998932 266.369202,100.994812 
	C267.789368,100.636185 268.844147,100.281662 269.898895,99.927139 
	C270.655334,99.420891 271.411774,98.914642 272.168213,98.408394 
	C272.190765,99.084999 272.213348,99.761612 272.117249,100.712112 
z"/>
<path fill="#CDD4DC" opacity="1.000000" stroke="none" 
	d="
M269.679901,99.660690 
	C268.844147,100.281662 267.789368,100.636185 266.400146,101.026138 
	C266.044647,100.605148 266.023651,100.148705 265.999664,99.350143 
	C267.151428,99.136757 268.306152,99.265503 269.679901,99.660690 
z"/>
<path fill="#8E181A" opacity="1.000000" stroke="none" 
	d="
M127.729233,116.535934 
	C124.920982,118.822479 122.352097,120.913086 119.601341,122.728065 
	C118.145081,123.688919 116.372612,124.170532 114.036667,124.829979 
	C111.467445,124.035286 109.604462,123.279114 107.741486,122.522949 
	C107.741486,122.522942 107.690193,122.383232 107.633705,122.334747 
	C108.062332,121.002922 108.183212,119.012024 109.088943,118.545776 
	C118.063072,113.926117 127.156708,109.537163 136.258148,105.169632 
	C136.855087,104.883171 137.792831,105.306931 139.440247,106.648239 
	C135.591171,109.840637 131.742096,113.033035 127.729233,116.535934 
z"/>
<path fill="#D6B0AF" opacity="1.000000" stroke="none" 
	d="
M107.566589,122.875412 
	C109.604462,123.279114 111.467445,124.035286 113.670181,124.886467 
	C114.022507,125.160179 114.035088,125.338890 114.063431,125.786507 
	C114.079193,126.055412 113.788971,126.083519 113.646385,126.081039 
	C111.466431,125.128326 109.429054,124.178101 107.566589,122.875412 
z"/>
<path fill="#CDD4DC" opacity="1.000000" stroke="none" 
	d="
M265.614868,101.040863 
	C264.081757,102.378525 262.246735,104.410172 260.092621,104.839073 
	C256.791626,105.496307 253.270828,105.049675 249.053879,105.107574 
	C243.807510,104.987816 247.159607,101.563354 246.104568,99.983635 
	C249.376450,104.965668 253.799164,102.497551 257.969238,101.854851 
	C260.355835,101.487022 262.768890,101.290527 265.614868,101.040863 
z"/>
<path fill="#9A9DA7" opacity="1.000000" stroke="none" 
	d="
M246.045517,99.592041 
	C247.159607,101.563354 243.807510,104.987816 248.586044,105.159698 
	C248.353470,105.829948 247.799271,106.484077 246.904099,107.286209 
	C245.131943,107.180382 243.700775,106.926559 242.025787,106.387085 
	C242.001938,102.601913 242.221863,99.102402 242.708771,95.354713 
	C243.762222,95.327263 244.548706,95.547997 245.618164,95.903458 
	C245.929581,97.092270 245.958023,98.146355 246.045517,99.592041 
z"/>
<path fill="#BBC2C9" opacity="1.000000" stroke="none" 
	d="
M118.008240,134.581848 
	C118.017059,134.982620 117.997955,135.480988 117.998978,135.730118 
	C117.194130,135.969360 116.044250,136.287384 115.655670,135.879730 
	C114.900505,135.087509 114.310410,133.918839 114.183815,132.843506 
	C114.124817,132.342392 115.307404,131.695114 115.927208,131.114090 
	C116.617943,132.136414 117.308678,133.158737 118.008240,134.581848 
z"/>
<path fill="#963B35" opacity="1.000000" stroke="none" 
	d="
M118.224548,137.559799 
	C118.717712,137.416916 119.242973,137.563751 119.971512,137.930466 
	C120.169510,138.529861 120.164215,138.909363 120.159523,139.571747 
	C119.525635,139.186234 118.891136,138.517883 118.224548,137.559799 
z"/>
<path fill="#CDD4DC" opacity="1.000000" stroke="none" 
	d="
M260.883026,155.200516 
	C261.040131,155.137314 261.025208,155.492462 261.029358,155.668274 
	C261.033539,155.844086 260.667206,155.846542 260.492096,155.808777 
	C260.394958,155.554932 260.531250,155.385834 260.883026,155.200516 
z"/>
<path fill="#D5DCE4" opacity="1.000000" stroke="none" 
	d="
M191.001617,146.575836 
	C184.944931,145.998688 178.916428,144.732391 172.822205,144.083374 
	C167.859283,143.554825 161.161865,138.562469 160.000839,133.377716 
	C161.428253,132.337143 162.856506,131.674301 164.642395,131.005722 
	C165.000000,131.000000 165.000610,131.000610 165.000610,131.000610 
	C163.919052,134.018845 164.044235,135.938263 168.153931,136.176102 
	C169.795166,136.271103 171.325394,138.284103 173.212189,139.644699 
	C178.681259,132.832153 183.461868,140.841934 188.854935,141.093445 
	C189.647369,141.130402 190.289642,144.386719 191.001617,146.575836 
z"/>
<path fill="#9A9DA7" opacity="1.000000" stroke="none" 
	d="
M180.995468,118.072418 
	C181.405472,117.698944 181.813171,117.706635 182.841278,117.761581 
	C184.072952,117.321785 184.684219,116.834732 185.295486,116.347687 
	C185.972931,116.337326 186.650391,116.326958 187.947632,116.550400 
	C190.822723,115.994827 193.078018,115.205444 195.333313,114.416069 
	C195.985107,114.357826 196.636917,114.299576 197.698898,114.589478 
	C202.045425,114.706413 205.981766,114.475197 210.112747,114.437836 
	C210.860718,115.074760 211.414062,115.517845 211.967392,115.960938 
	C201.725372,118.096863 191.483368,120.232796 180.993149,122.420486 
	C180.993149,120.761459 180.993149,119.607521 180.995468,118.072418 
z"/>
<path fill="#AEAFB9" opacity="1.000000" stroke="none" 
	d="
M212.396210,115.976936 
	C211.414062,115.517845 210.860718,115.074760 210.536987,114.352142 
	C214.177200,113.352226 217.587830,112.631836 220.998459,111.911446 
	C223.369598,111.919395 225.740753,111.927345 228.555786,111.957565 
	C228.567337,112.605232 228.213455,113.695442 227.690430,113.783745 
	C222.751755,114.617561 217.784241,115.280632 212.396210,115.976936 
z"/>
<path fill="#D5DCE4" opacity="1.000000" stroke="none" 
	d="
M164.999695,130.999695 
	C165.302551,130.489258 165.605728,129.979111 165.908890,129.468979 
	C166.118774,129.651031 166.328659,129.833069 166.538544,130.015121 
	C166.215668,130.320480 165.892792,130.625839 165.285263,130.965912 
	C165.000610,131.000610 165.000000,131.000000 164.999695,130.999695 
z"/>
<path fill="#D8DDE5" opacity="1.000000" stroke="none" 
	d="
M155.999390,133.000610 
	C155.876877,132.857864 155.754974,132.714523 155.633072,132.571167 
	C155.719742,132.620636 155.806412,132.670090 155.947144,132.859161 
	C156.001221,132.998779 156.000000,133.000000 155.999390,133.000610 
z"/>
<path fill="#D1D6DF" opacity="1.000000" stroke="none" 
	d="
M220.712357,111.648422 
	C217.587830,112.631836 214.177200,113.352226 210.342346,114.158302 
	C205.981766,114.475197 202.045425,114.706413 198.026337,114.579163 
	C200.407669,113.612129 202.841599,112.722122 205.342148,112.454346 
	C210.350906,111.917961 215.396103,111.721939 220.712357,111.648422 
z"/>
<path fill="#D1D6DF" opacity="1.000000" stroke="none" 
	d="
M194.932678,114.321609 
	C193.078018,115.205444 190.822723,115.994827 188.285767,116.577515 
	C190.180084,115.656281 192.356079,114.941719 194.932678,114.321609 
z"/>
<path fill="#BBC2C9" opacity="1.000000" stroke="none" 
	d="
M263.037048,112.342651 
	C263.689880,112.584084 264.152161,113.065269 264.614471,113.546463 
	C263.502777,114.165245 262.391052,114.784035 261.081879,115.148148 
	C261.538452,114.123123 262.192474,113.352776 263.037048,112.342651 
z"/>
<path fill="#D1D6DF" opacity="1.000000" stroke="none" 
	d="
M184.977997,116.261795 
	C184.684219,116.834732 184.072952,117.321785 183.145020,117.717529 
	C183.439072,117.142792 184.049774,116.659355 184.977997,116.261795 
z"/>
<path fill="#BBC2C9" opacity="1.000000" stroke="none" 
	d="
M262.994751,119.006851 
	C265.371185,121.563126 264.500153,124.338646 260.423981,125.999023 
	C258.695007,125.565956 257.344116,125.127548 255.984695,124.360954 
	C258.196930,122.536850 260.417725,121.040939 262.819244,119.272514 
	C263.000000,119.000000 262.994751,119.006851 262.994751,119.006851 
z"/>
<path fill="#BBC2C9" opacity="1.000000" stroke="none" 
	d="
M263.003418,118.997375 
	C262.885834,118.857468 262.764832,118.720192 262.643829,118.582916 
	C262.726196,118.633034 262.808594,118.683151 262.942871,118.870056 
	C262.994751,119.006851 263.000000,119.000000 263.003418,118.997375 
z"/>
</svg>