<svg version="1.1" id="Layer_1" xmlns="http://www.w3.org/2000/svg" xmlns:xlink="http://www.w3.org/1999/xlink" x="0px" y="0px"
	 width="100%" viewBox="0 0 576 560" enable-background="new 0 0 576 560" xml:space="preserve">
<path fill="#000000" opacity="1.000000" stroke="none" 
	d="
M110.969986,266.934998 
	C111.219673,272.657593 107.107681,269.412292 104.174377,269.700012 
	C106.715805,276.228241 112.314072,273.621002 116.635895,274.765137 
	C118.133675,278.401001 118.018669,282.683838 116.421661,285.755798 
	C114.487656,289.476013 118.190712,292.490692 116.281532,295.994537 
	C113.047600,296.154266 109.777374,296.315796 105.246056,296.539581 
	C108.074814,299.007751 110.437637,298.833313 112.743835,298.743011 
	C115.592964,298.631439 117.031685,299.776703 117.129662,302.803070 
	C117.225906,305.776215 117.983078,308.689209 117.215469,311.727692 
	C116.870384,313.093658 116.883438,314.989044 117.586197,316.109924 
	C122.349266,323.706970 124.307213,332.318512 126.638939,340.761719 
	C127.556183,344.083008 129.106430,346.544495 132.068222,348.033447 
	C136.627090,350.325226 139.101059,354.612030 140.168823,358.922363 
	C142.516586,368.399658 149.312042,373.482452 156.519165,378.784485 
	C160.581360,381.772888 163.906830,385.869324 167.176575,389.789856 
	C169.263458,392.292145 171.746506,394.081055 174.381165,395.817108 
	C179.386063,399.114960 183.856110,403.075836 187.816956,407.535797 
	C189.708252,409.665375 190.825134,412.511475 190.054108,415.425079 
	C189.102325,419.021729 190.330154,422.335236 192.166199,424.808167 
	C194.461151,427.899231 193.790070,431.173370 194.135864,434.301483 
	C194.525192,437.823456 189.939850,436.036194 188.535278,438.466675 
	C189.490738,441.843597 192.010941,442.048889 194.671692,440.918243 
	C198.830719,439.150940 203.085602,440.687195 207.084610,440.887360 
	C211.948853,441.130890 214.862411,446.051727 216.130142,450.560394 
	C217.768982,456.388824 221.994797,458.365692 226.903091,458.301849 
	C238.802567,458.147125 250.452011,458.941772 261.800232,462.871918 
	C268.291168,465.119812 275.176239,465.697205 281.960999,466.012360 
	C291.169006,466.440002 299.300812,470.157898 307.760559,473.074310 
	C316.468872,476.076385 325.543060,477.772217 333.765900,482.457306 
	C338.948944,485.410431 345.415253,484.798096 351.305054,484.482300 
	C355.095581,484.279053 358.241089,485.009674 361.064392,487.153351 
	C363.858063,489.274567 367.286346,489.260223 370.344513,490.444794 
	C371.775787,490.999146 373.007080,490.276733 373.325409,488.663940 
	C373.618744,487.177551 372.645874,486.382629 371.361481,486.367432 
	C364.538971,486.286682 359.440826,482.098694 353.588928,479.520813 
	C343.864899,475.237152 334.001007,471.041199 323.591156,468.412231 
	C320.074219,467.524048 316.667694,465.997803 313.393890,464.390137 
	C306.793121,461.148743 299.550323,459.982361 292.672546,457.651794 
	C289.808380,456.681244 287.449432,455.544586 287.542206,451.140656 
	C296.658813,450.808441 304.063171,458.924957 313.187378,455.270386 
	C313.155365,455.168976 312.617462,454.195679 312.574585,453.201019 
	C312.412567,449.439026 323.807739,432.219543 327.458008,431.655304 
	C340.462860,429.645172 352.773407,424.869843 365.758789,422.643097 
	C374.778778,421.096375 379.880768,425.715271 385.087585,431.214203 
	C386.376465,432.575409 387.545868,433.951019 389.366699,434.482056 
	C398.519562,437.151428 404.176392,444.026031 409.606995,451.193604 
	C410.354370,452.180023 410.714142,453.244385 410.543854,454.456573 
	C409.335632,463.058258 411.369507,470.864349 416.171509,478.046417 
	C416.674652,478.798889 416.633911,479.915009 416.846497,480.866852 
	C418.653198,481.166595 420.548767,479.689636 422.081879,481.526001 
	C425.052826,485.084656 426.769562,483.241394 428.129608,480.048340 
	C431.483612,472.173889 432.455658,463.719360 434.237701,455.449799 
	C438.154633,437.273224 442.498260,419.191345 445.331451,400.789917 
	C449.807983,371.715149 454.480621,342.670624 458.980743,313.599457 
	C460.986420,300.642548 463.611389,287.704010 464.422546,274.661804 
	C465.213715,261.941010 464.268097,249.274841 460.003571,236.737427 
	C456.296265,225.838196 453.334839,214.564255 450.488953,203.317184 
	C448.407532,195.091263 447.757996,186.484955 443.911835,178.556076 
	C442.244537,175.118942 440.545044,170.272339 442.920929,166.111938 
	C444.924011,162.604462 442.136780,159.514297 441.212402,157.541901 
	C439.302307,153.466125 440.124237,148.059982 435.808472,145.075287 
	C435.373840,144.774704 435.060242,143.785172 435.199249,143.246735 
	C437.043060,136.105392 432.152039,130.783539 430.242584,124.668861 
	C429.656128,122.790726 429.176025,120.491043 426.636719,120.465935 
	C424.070038,120.440544 421.156189,120.091629 420.109955,123.581734 
	C419.889618,124.316757 419.251343,125.368599 418.654938,125.482033 
	C410.571838,127.019432 404.636139,133.394836 396.677002,135.157104 
	C395.307068,135.460434 394.090057,135.920151 394.183228,138.079239 
	C397.356567,138.841400 400.709076,141.505966 403.140472,136.541779 
	C403.319794,136.175568 403.977203,135.806244 404.391754,135.828201 
	C410.331299,136.142639 414.541321,132.290543 419.389313,129.873779 
	C421.744537,128.699692 425.065613,129.827408 426.727325,126.595314 
	C427.155457,125.762581 428.595276,126.479057 429.293243,127.273232 
	C430.049927,128.134171 430.156311,129.223801 429.238983,129.926880 
	C427.799683,131.030075 426.298096,132.406296 424.624908,132.779633 
	C420.581940,133.681732 418.287781,136.188339 416.917328,139.806259 
	C414.590118,145.949905 409.517883,149.858032 404.928314,154.005280 
	C401.883606,156.756561 399.396515,159.500259 397.891205,163.389343 
	C394.477997,172.207626 385.923401,172.442535 378.488617,174.178040 
	C376.353180,174.676514 373.894684,173.838272 372.385040,175.661362 
	C368.551880,172.425903 365.109192,169.570435 361.730103,166.641617 
	C360.479675,165.557800 359.130066,164.457825 358.268250,163.086990 
	C357.004028,161.076111 356.237854,158.824951 358.154724,156.633743 
	C360.164032,154.336823 361.690002,156.785004 363.702942,157.502792 
	C364.861847,153.273529 367.633942,151.502762 371.641296,152.187622 
	C372.458099,150.241516 371.968048,148.967361 370.133698,147.338959 
	C365.500793,152.852036 357.884216,151.870895 351.955383,155.667175 
	C347.903778,158.261429 342.866180,160.156616 337.182922,159.463654 
	C332.492432,158.891739 328.229584,162.313156 323.508759,163.370316 
	C314.194427,165.456100 304.820679,167.190781 295.533264,169.164917 
	C290.308014,170.275604 284.766754,171.549240 279.496826,173.199203 
	C277.936829,173.687637 275.952332,174.891022 275.461182,172.406219 
	C275.028534,170.217163 277.191895,170.060242 278.878387,169.781815 
	C282.245819,169.225830 284.933411,167.638275 286.745300,164.856796 
	C285.206329,162.589951 283.230255,165.817780 281.756500,163.163147 
	C284.486542,162.142044 287.086029,160.854492 289.836151,160.200424 
	C298.008972,158.256607 306.017029,155.530228 314.445770,154.753571 
	C325.054199,153.776062 334.519257,149.112411 344.174133,145.241577 
	C350.503296,142.704086 356.943817,140.449097 363.267822,137.891678 
	C373.766754,133.645950 383.789734,128.368759 394.229431,124.117538 
	C403.819824,120.212151 413.072388,115.522087 422.822845,112.060524 
	C424.752960,111.375305 425.942841,110.476166 426.949280,108.896858 
	C427.734100,107.665352 428.066406,106.407913 427.214661,105.175545 
	C426.427551,104.036674 425.166138,104.335472 424.001556,104.496040 
	C417.199127,105.433937 411.162506,108.613876 404.886353,111.070869 
	C400.170868,112.916901 395.538422,115.295547 391.354370,117.873909 
	C386.945251,120.590988 382.437134,123.129173 378.014740,125.818382 
	C376.495667,126.742104 375.403137,127.445076 373.614960,127.192772 
	C371.601990,126.908745 369.609161,127.282707 367.918732,128.549026 
	C362.853119,132.343658 356.161041,132.065170 350.948639,135.193298 
	C347.649292,137.173325 343.224518,136.389832 340.681488,139.840378 
	C339.993195,140.774338 338.824738,140.896484 337.961975,140.374847 
	C334.789581,138.456741 331.631073,139.855255 328.812347,140.784103 
	C317.262878,144.590042 305.453735,147.064743 293.549591,149.476456 
	C285.039032,151.200638 276.346130,152.001068 267.973145,154.362976 
	C265.104034,155.172318 262.434998,154.973663 259.455811,153.469162 
	C260.066254,151.093719 256.802765,147.857468 260.153198,146.059845 
	C262.922455,144.574036 262.408020,148.463684 263.753662,149.717972 
	C265.518433,149.753586 266.486694,148.870880 266.462158,147.045715 
	C266.439209,145.336151 266.899048,143.955780 268.842896,143.941162 
	C270.829285,143.926208 271.054749,145.580215 271.396179,147.072495 
	C271.494995,147.504272 271.875366,147.871628 272.096008,148.220169 
	C273.933044,148.266464 274.712830,147.331619 274.582031,145.757156 
	C274.429749,143.924210 274.522888,142.240952 276.796356,142.082367 
	C278.833344,141.940247 278.964722,143.727798 279.398407,145.149216 
	C279.530548,145.582382 279.904938,145.941635 280.106232,146.241989 
	C281.493561,146.591736 282.240540,145.945145 282.499268,144.885559 
	C282.941376,143.074966 282.220520,140.260162 285.218781,140.499878 
	C287.795868,140.705948 287.113678,143.428772 287.275970,145.324524 
	C289.165283,144.784256 290.391144,143.980225 290.545380,142.277710 
	C290.677124,140.823502 290.162811,139.196167 292.293945,138.709625 
	C294.626678,138.177048 295.046661,139.906372 295.761078,141.413147 
	C295.939941,141.790405 296.498840,141.987473 296.858337,142.249344 
	C299.763611,141.548340 297.850433,138.104782 300.024963,137.027512 
	C303.302948,135.403580 302.948486,139.380417 305.089172,140.224319 
	C307.235168,138.166901 308.279480,130.440277 313.130981,138.765396 
	C314.968475,134.863220 316.231293,129.979004 321.181641,135.718094 
	C323.175507,131.977722 325.302917,128.817993 329.230438,133.871704 
	C331.190582,130.070038 333.367432,127.462410 337.501099,130.717865 
	C339.707306,127.402512 341.867828,124.284538 346.095642,128.244354 
	C346.932220,126.478424 347.600342,125.068100 348.474121,123.223671 
	C344.507446,122.920677 341.084045,122.090279 337.942688,124.935791 
	C335.963501,126.728569 333.087524,125.303734 330.712708,126.256973 
	C322.302704,129.632706 313.136658,129.733475 304.431976,132.055099 
	C300.083527,133.214874 295.212799,133.700409 290.543243,134.235504 
	C289.058258,134.405670 287.516235,134.983078 286.465759,133.398895 
	C285.762024,132.337585 285.755402,131.104279 286.536743,130.114090 
	C287.636108,128.720901 289.165680,128.774734 290.621307,129.462875 
	C292.104706,130.164169 293.472870,130.682648 294.376740,128.753647 
	C295.052612,127.311241 294.450012,126.148308 293.328949,125.234047 
	C292.323792,124.414345 291.216003,124.192169 290.196014,125.217590 
	C288.453156,126.969749 286.604980,127.749008 284.574310,125.748772 
	C283.522125,124.712341 283.272369,123.330490 284.131805,122.094360 
	C285.628937,119.941063 287.657928,119.934990 289.884979,120.933250 
	C290.237793,121.091393 290.789948,120.804802 291.287506,120.717216 
	C289.896729,117.847382 283.019775,117.102272 279.072937,119.285522 
	C278.902405,120.875740 280.548462,120.881081 281.221375,121.732330 
	C282.438385,123.271851 282.235077,124.838837 281.194122,126.338097 
	C280.388245,127.498787 279.290619,128.375854 277.814514,127.699837 
	C276.161530,126.942818 276.007080,125.465225 276.439331,123.867981 
	C276.969208,121.909859 276.180206,120.655533 274.368652,119.922226 
	C273.547943,119.590012 272.709656,119.442108 272.073242,120.172653 
	C270.736542,121.707047 271.820984,122.933662 272.689514,124.162308 
	C273.814514,125.753792 274.644745,127.402893 272.905457,129.064316 
	C271.941650,129.984940 270.748627,129.823349 269.654266,129.218063 
	C267.423920,127.984436 268.171082,126.211555 268.800049,124.434547 
	C268.955078,123.996590 268.863708,123.471413 268.888977,122.911369 
	C267.300781,121.656593 265.846741,120.419975 263.544281,121.309708 
	C259.684235,122.801292 259.657288,122.731560 256.515778,120.973778 
	C254.472443,122.576813 253.918304,124.154144 256.033966,126.304703 
	C257.786377,128.086014 257.348511,130.285889 255.314270,131.381149 
	C252.783188,132.743958 251.630051,130.339798 251.039749,128.601593 
	C250.204468,126.142059 250.431946,123.303093 247.960342,121.108788 
	C246.688797,123.268440 245.474869,125.330231 244.135162,127.695755 
	C244.009384,127.999481 244.038330,127.982681 244.038330,127.982681 
	C242.765579,126.530510 242.762222,124.067696 240.087051,123.351624 
	C237.384430,125.693619 234.358536,130.053360 231.177795,122.666489 
	C229.633499,125.782860 230.012314,129.945038 225.461060,129.298203 
	C223.847900,128.223495 225.276260,125.039215 221.991348,124.727455 
	C221.917068,128.971085 220.761444,131.983688 215.711792,128.736389 
	C214.854401,128.185028 213.837616,128.960464 213.434357,130.080215 
	C211.981537,134.114395 209.540771,133.271713 206.821793,131.143005 
	C204.646622,133.965149 202.573669,137.666977 198.956818,131.403000 
	C197.460800,136.767746 195.402359,139.754456 190.590561,135.165451 
	C189.565323,138.223236 189.717682,140.427109 191.601471,142.481522 
	C192.782562,143.769608 193.590637,145.274460 192.194794,146.916840 
	C191.521271,147.709290 190.534271,148.173737 189.513779,147.662033 
	C187.862091,146.833878 187.866455,145.433075 188.270462,143.811996 
	C189.109116,140.446976 185.973175,140.886551 184.116394,139.536514 
	C182.870651,142.000885 181.705841,144.613876 178.292252,143.662430 
	C176.586121,143.186890 175.905838,144.350204 175.297913,145.611023 
	C174.633316,146.989410 174.679840,148.115875 176.143738,149.025696 
	C176.816544,149.443848 177.445770,150.100647 177.816956,150.797256 
	C178.417496,151.924332 178.327515,153.128571 177.126801,153.865067 
	C175.788483,154.685944 174.911407,153.931076 174.376724,152.729050 
	C173.905365,151.669434 173.737335,150.439331 173.122513,149.486343 
	C171.743225,147.348480 170.017395,145.993378 168.345871,149.178680 
	C167.432785,150.918655 166.688446,153.010941 164.489655,151.075485 
	C162.461349,149.290085 163.143463,146.142029 164.963074,145.437988 
	C171.853210,142.771957 176.283478,135.837479 184.317825,135.017563 
	C187.431839,134.699768 190.409286,132.291611 193.276276,130.551270 
	C195.439117,129.238373 197.405563,128.412689 200.131882,130.623276 
	C200.007614,127.351875 202.182419,126.889336 204.262009,126.287903 
	C219.775757,121.801285 235.472580,118.141846 251.457993,115.768341 
	C276.362030,112.070595 301.249176,108.352516 325.958282,103.386856 
	C347.325500,99.092796 367.214142,90.924072 386.676971,81.681709 
	C396.495544,77.019119 406.581696,73.958992 417.185150,73.331734 
	C425.656097,72.830627 432.700073,77.672745 439.305969,82.636505 
	C441.394531,84.205864 443.194641,86.328148 446.157349,86.277176 
	C448.305267,84.398315 447.599518,81.906319 447.637573,79.682236 
	C447.801483,70.110405 449.643097,60.794018 452.764099,51.848633 
	C458.321045,35.921257 468.206940,32.877090 483.598633,37.150581 
	C488.866943,38.613319 492.014404,43.634598 494.943665,48.007450 
	C501.899506,58.391159 507.094574,69.786278 512.827148,80.860901 
	C518.630249,92.071815 523.899841,103.535530 530.637573,114.280563 
	C534.485718,120.417412 536.253113,127.699417 540.198608,133.929321 
	C541.928650,136.661133 543.786743,139.107239 546.216553,141.143982 
	C558.016174,151.034851 561.659363,164.368576 560.434265,178.800201 
	C558.834106,197.650177 554.926697,216.252823 553.199402,235.128784 
	C552.454712,243.266953 549.510925,250.978897 547.333008,258.823914 
	C541.993347,278.058411 539.758972,298.016632 533.651611,317.076416 
	C529.632080,329.620422 524.473267,341.665253 519.157104,353.712738 
	C514.201477,364.943024 510.980377,376.930878 505.615570,388.044006 
	C495.734161,408.513245 483.336792,427.347382 469.627655,445.480835 
	C459.901062,458.346497 448.347046,469.213379 436.588287,479.996918 
	C434.282715,482.111237 432.143951,484.622681 428.746124,485.065125 
	C426.345642,485.377716 426.109222,487.423615 425.584351,489.079529 
	C424.427002,492.730743 423.426147,496.432526 421.627380,499.840973 
	C419.300934,504.249329 415.452118,505.902740 410.814728,506.170807 
	C409.173401,502.880798 412.717102,502.029175 413.160065,499.845154 
	C411.646393,497.529785 409.262939,498.954712 408.309387,499.627441 
	C401.675507,504.307617 392.976196,504.818665 386.869843,510.415039 
	C385.093597,512.042908 382.674683,511.277435 380.766388,512.217285 
	C375.748474,514.688782 370.192413,516.583557 369.606964,523.572693 
	C369.430969,525.674072 367.192047,526.251587 365.454193,526.697449 
	C360.357574,528.005066 355.455597,529.904358 350.076965,530.351135 
	C344.122192,530.845703 338.621460,533.280945 333.401886,536.738037 
	C331.070068,534.495850 328.705200,532.532532 325.229156,534.774902 
	C323.994415,535.571411 322.320435,534.819397 320.836212,534.559570 
	C311.842590,532.985168 302.845215,531.428040 293.831573,529.973938 
	C288.970856,529.189758 286.196259,526.390991 285.759430,520.152771 
	C285.578369,517.566833 285.019531,516.876953 282.739319,517.233276 
	C281.178467,518.107971 283.800659,519.366028 281.674927,520.658264 
	C278.773743,514.899963 271.114960,518.514160 267.100098,513.129578 
	C270.145935,510.422882 269.052460,509.298004 265.472534,507.810913 
	C256.861115,504.233643 248.492554,500.058441 240.104797,495.963104 
	C236.965057,494.430115 240.547394,493.190216 240.651871,491.902069 
	C237.691193,487.394989 234.958679,493.598755 232.273102,492.212189 
	C231.026352,490.273132 234.635483,488.903809 232.262527,487.122406 
	C230.000809,485.424469 229.357452,487.540131 227.868103,488.353424 
	C225.866684,489.446381 224.583099,488.263397 224.639999,485.686981 
	C224.700943,482.927795 223.447281,481.764526 220.985916,483.904724 
	C219.754837,484.975220 218.599792,485.013855 217.385117,484.146576 
	C215.922028,483.101959 216.185089,482.067535 217.405563,480.890320 
	C218.225464,480.099457 217.501877,479.379883 216.779022,478.900116 
	C216.032089,478.404327 215.113007,478.192871 214.516617,478.964966 
	C213.087082,480.815796 211.650803,481.007599 210.074081,479.450592 
	C209.276855,477.554626 212.596161,477.363007 210.722519,474.579071 
	C208.846680,473.004364 206.399292,473.093811 204.451263,476.186798 
	C195.175522,470.311279 195.175522,470.311279 195.101212,465.578766 
	C192.920746,465.562775 190.621338,468.711487 188.336472,465.298126 
	C189.136292,463.305847 192.004623,462.147247 191.519653,459.232605 
	C188.272980,456.224091 185.266647,465.094238 181.856720,460.113495 
	C181.178650,457.547760 184.635239,457.983063 184.089188,455.238403 
	C180.574936,453.345825 177.662308,458.114319 174.143677,456.942078 
	C174.755005,450.640289 174.755005,450.640289 169.355408,451.001190 
	C162.499756,445.501495 157.590576,438.973328 153.103668,431.994629 
	C149.749954,426.778442 147.107010,421.268524 144.647476,415.651489 
	C142.016357,409.642487 139.241516,403.899933 133.193726,400.450836 
	C130.217468,398.753418 128.249939,395.870667 126.815109,392.894562 
	C122.028458,382.966217 114.535660,374.822113 108.994087,365.429596 
	C100.949638,351.794983 90.993561,339.449310 82.739426,325.997070 
	C73.795937,311.421417 65.625328,296.372589 57.059685,281.563660 
	C50.315868,269.904480 43.167645,258.466858 36.777649,246.618759 
	C29.995293,234.043152 22.794304,221.517029 17.751776,208.220062 
	C9.893660,187.498520 8.244787,166.059189 16.934504,144.883713 
	C22.835529,130.503845 33.411835,128.520462 48.169529,129.523972 
	C61.865898,130.455338 71.091827,138.802902 78.971382,148.742126 
	C90.035179,162.697937 100.551575,177.087891 111.292557,191.299362 
	C115.633049,197.042297 116.387703,197.103836 119.990723,190.669876 
	C126.622421,178.827576 135.992798,169.271469 145.306717,159.645813 
	C146.227539,158.694183 147.072510,157.455795 148.625977,157.880585 
	C150.282501,158.333527 150.204163,159.913376 150.268890,161.188614 
	C150.384720,163.469727 151.290390,165.314774 152.707626,167.056107 
	C153.551819,168.093338 154.291962,169.623993 152.827682,170.567551 
	C151.102371,171.679291 150.127136,170.298035 149.411575,168.843323 
	C148.770233,167.539490 148.538101,165.881531 146.405853,165.554703 
	C144.426422,167.323044 145.723740,168.947525 146.805466,170.582642 
	C148.833466,173.648117 149.735138,176.295181 144.700577,176.353638 
	C142.434494,181.259415 149.317001,182.782669 148.349274,187.250549 
	C144.196976,187.527542 144.835739,181.878708 140.932312,181.844879 
	C138.258881,186.424866 146.307602,187.722153 143.933350,192.271484 
	C139.920700,192.707321 140.339554,184.970474 134.943390,187.254761 
	C134.761353,190.063049 136.951233,191.481934 138.789246,192.965134 
	C142.009048,195.563339 143.196136,198.562088 141.631226,202.594620 
	C140.658310,205.101669 140.078415,207.498474 142.815704,209.778076 
	C144.955307,211.559906 144.870651,214.847748 143.005707,216.486862 
	C140.777176,218.445541 137.417175,218.895966 134.804367,216.665726 
	C133.531082,215.578903 133.188034,213.282242 130.805679,215.194611 
	C130.129135,215.737701 128.804108,214.907883 128.748077,214.283356 
	C128.258072,208.821732 122.728951,209.114716 119.661827,206.416336 
	C125.600235,216.525620 134.960556,225.217422 132.190109,238.814529 
	C130.148911,239.000702 127.005959,234.387665 124.670464,239.274033 
	C122.463501,238.263870 123.903313,235.050964 121.355148,233.824509 
	C120.512238,236.153076 123.718063,238.364197 121.150391,240.421814 
	C117.467484,240.954956 117.297211,237.766708 116.420967,235.157394 
	C113.207001,238.897095 111.270409,236.420883 109.447998,233.757812 
	C106.505829,235.997772 108.755180,237.478500 109.759537,238.796997 
	C110.924248,240.325989 113.284996,241.238754 112.720978,243.607346 
	C112.019745,246.552170 109.100800,243.765121 107.731903,245.144730 
	C107.339279,246.510880 108.355003,247.020996 109.069656,247.655716 
	C110.666718,249.074066 113.140442,250.510849 111.355064,252.880127 
	C109.559898,255.262375 108.121262,251.783051 106.300148,251.699905 
	C104.934738,254.366577 107.088936,255.415543 108.553993,256.546265 
	C110.862823,258.328247 112.235046,260.075470 109.600594,262.607056 
	C107.681999,264.450714 109.268410,265.498260 110.734344,266.805450 
	C110.985008,266.970428 110.969986,266.934998 110.969986,266.934998 
M39.410954,136.628967 
	C34.040218,138.194214 29.158323,140.315140 26.095181,145.523148 
	C18.594318,158.276215 19.979427,172.018051 22.616049,185.348724 
	C25.918230,202.044464 32.677532,217.534485 41.593452,232.253128 
	C61.851627,265.695923 81.666779,299.419373 98.292870,334.887573 
	C99.050377,336.503540 99.727669,338.489258 102.221207,339.161011 
	C101.523804,335.336365 100.963074,331.921600 100.272621,328.533264 
	C97.181641,313.364380 94.511681,298.168549 95.668129,282.562744 
	C96.639580,269.453491 98.653809,256.496613 101.205620,243.624405 
	C103.231163,233.406876 104.410416,222.922485 109.739235,213.632095 
	C111.068283,211.314972 109.891342,209.693115 108.402626,207.886841 
	C101.205742,199.154770 94.644844,189.946136 88.140205,180.687744 
	C78.692131,167.239838 69.724937,153.505493 57.585079,142.027115 
	C52.145615,136.884048 46.959419,135.411163 39.410954,136.628967 
M455.766388,67.210571 
	C454.286804,74.265434 454.651794,81.442963 454.173798,88.563324 
	C453.705902,95.532898 456.686340,99.580208 462.371094,102.450470 
	C478.587158,110.637970 495.548004,117.009796 512.670715,122.973122 
	C514.829346,123.724915 517.408264,124.771523 519.139160,122.505341 
	C520.684387,120.482147 519.104797,118.348373 518.155701,116.461838 
	C513.376770,106.962685 508.363983,97.577881 503.741791,88.003998 
	C496.809509,73.645226 490.792511,58.855503 480.510315,46.286770 
	C477.432648,42.524628 474.773438,41.955669 470.735565,43.460381 
	C460.082886,47.430096 457.385437,56.479980 455.766388,67.210571 
M344.311432,117.343811 
	C345.706512,116.829567 347.054077,118.868042 348.649475,117.268990 
	C348.855743,114.580147 348.570068,112.557068 344.938354,114.425835 
	C343.307983,115.264763 341.716644,115.340271 340.528656,113.688049 
	C339.663269,112.484482 339.707184,111.194862 340.687836,110.036781 
	C342.270721,108.167465 343.627808,109.728928 345.059967,110.338211 
	C345.332825,110.454292 345.697327,110.354858 346.229218,110.354858 
	C348.439667,107.675972 347.102692,106.105110 344.406006,104.673485 
	C342.316742,106.336601 340.589111,108.195038 337.359039,107.176666 
	C335.858398,106.703545 333.660522,108.881760 335.415344,110.790642 
	C337.526581,113.087181 338.044952,115.965195 339.056763,118.350624 
	C341.074768,119.136993 342.236938,117.795593 344.311432,117.343811 
M159.336319,408.467438 
	C155.182449,406.172516 155.182449,406.172516 152.239960,407.985443 
	C156.140854,410.248627 159.795258,412.450562 163.536865,414.492737 
	C164.757416,415.158936 166.255249,415.140472 167.065781,413.738190 
	C167.968475,412.176453 166.561493,411.373962 165.662521,410.434021 
	C164.092255,408.792114 161.877914,409.456360 159.336319,408.467438 
M362.158386,120.475456 
	C363.928223,119.076111 366.948090,118.283394 365.439301,114.733353 
	C362.960144,115.383720 362.524292,118.429337 360.594910,117.922127 
	C356.937958,116.960732 355.473694,120.478966 352.701233,121.189598 
	C351.624390,121.465607 351.021667,122.435387 351.707764,123.508377 
	C352.588806,124.886246 353.793762,124.536530 354.514832,123.410027 
	C356.248169,120.701920 359.040863,121.160934 362.158386,120.475456 
M354.839874,107.516273 
	C356.086060,103.518532 361.131775,105.623146 363.247345,102.568657 
	C360.101807,99.403816 357.601196,102.965691 354.916351,102.898544 
	C353.567108,102.864792 351.638916,102.349594 351.376801,104.528084 
	C351.134033,106.545891 352.583466,107.381287 354.839874,107.516273 
M322.249878,119.953331 
	C322.847229,121.422813 323.689545,122.188309 325.223633,121.020897 
	C323.368774,111.607254 323.368774,111.607254 319.637787,111.966644 
	C319.489288,114.722969 322.622864,116.409973 322.249878,119.953331 
M330.680573,111.671082 
	C329.478180,110.889565 328.289551,109.685051 326.759674,111.775093 
	C329.605865,114.178764 330.113953,117.090729 327.648499,120.440712 
	C329.505707,120.950844 330.883484,121.879082 332.200958,120.543831 
	C333.298523,119.431473 332.929016,118.033928 332.185883,116.906075 
	C331.215759,115.433708 331.436371,113.747887 330.680573,111.671082 
M390.029572,98.838104 
	C388.435028,99.448723 385.777100,98.733154 385.652802,102.117859 
	C388.271332,102.000198 389.578064,99.777351 391.643585,100.101654 
	C393.184753,100.343651 394.693054,100.705002 395.172272,98.666718 
	C395.297394,98.134506 395.112091,97.195862 394.731842,96.934013 
	C392.718445,95.547562 391.918060,97.685638 390.029572,98.838104 
M130.417358,392.548981 
	C133.338348,394.396881 135.379395,398.154999 139.711502,397.067535 
	C136.217987,395.928925 134.444824,392.604828 131.540726,390.837982 
	C130.100204,389.961609 128.774017,389.581329 130.417358,392.548981 
M308.331024,121.642723 
	C306.933136,119.922768 307.597382,117.034416 305.233093,115.794823 
	C308.225555,118.730850 302.732239,123.991608 307.830933,126.345718 
	C309.591064,125.074532 309.408722,123.703613 308.331024,121.642723 
M108.822548,281.651489 
	C110.132248,281.720795 111.608299,282.565918 112.747467,280.895142 
	C110.497238,278.224884 107.320595,279.177856 104.650749,277.874481 
	C104.451439,280.946991 106.631508,280.842926 108.822548,281.651489 
M312.581970,112.601982 
	C310.918030,112.825996 310.666382,114.119598 310.370697,115.536507 
	C311.928925,116.221962 313.229919,117.759819 315.356537,116.671600 
	C315.747040,114.697250 314.687073,113.605522 312.581970,112.601982 
M378.953491,146.378754 
	C377.128113,142.635345 376.041229,145.184433 373.702240,147.509796 
	C376.226410,147.048737 377.487976,150.845795 378.953491,146.378754 
z"/>
<path fill="#000000" opacity="1.000000" stroke="none" 
	d="
M154.102661,254.012268 
	C152.169510,251.352829 152.714005,248.755203 153.024277,246.027649 
	C153.690018,240.174866 151.545624,234.424820 152.119354,228.531616 
	C152.339935,226.265884 151.989227,223.925598 152.366058,221.698318 
	C152.990814,218.005569 156.434250,217.890610 160.819397,221.358948 
	C162.458740,221.677246 163.517715,218.330765 165.533020,220.538727 
	C167.350754,222.530197 164.337036,223.203247 164.381744,224.703110 
	C166.366516,226.806778 170.034286,228.410110 168.982468,231.640015 
	C167.978058,234.724319 170.643982,241.022995 162.845963,239.632141 
	C164.125381,242.610565 167.085556,244.056168 167.132126,247.116333 
	C166.152618,248.318817 165.472107,246.518753 164.128632,246.950546 
	C165.508240,248.621109 167.009735,250.489059 163.879333,251.723236 
	C165.198486,253.119995 166.723511,251.088669 167.955215,252.839935 
	C165.699829,255.349503 167.003418,258.877533 165.967682,262.413940 
	C161.393906,259.953217 154.649551,261.925934 154.102661,254.012268 
z"/>
<path fill="#000000" opacity="1.000000" stroke="none" 
	d="
M206.079559,332.898499 
	C209.317444,333.550293 210.229935,335.848022 210.279541,338.785858 
	C210.310455,340.617462 209.727570,342.093170 207.909180,342.760956 
	C205.155334,343.772278 202.842957,342.550476 201.223267,340.613037 
	C199.365906,338.391357 197.217972,337.958527 194.644287,338.292999 
	C191.993515,338.637512 189.717209,337.842773 187.731995,336.105743 
	C187.481415,335.886475 187.238770,335.491028 186.976212,335.476807 
	C179.319839,335.062469 177.987457,327.872314 173.974304,323.232452 
	C171.663757,325.073486 173.271408,328.013458 172.017273,330.056854 
	C169.394241,327.904266 168.875076,322.971222 170.296265,313.573273 
	C175.195374,314.552460 174.191101,320.629303 177.832275,322.353577 
	C180.742294,321.863373 178.813522,318.659424 180.955063,317.432343 
	C183.441742,319.645416 186.443115,319.827393 189.889023,319.698181 
	C193.132462,319.576569 195.082413,322.205597 196.319366,325.560913 
	C197.756134,329.458191 197.014191,334.305023 201.189911,337.157501 
	C202.776367,338.241272 203.908035,340.743744 206.137100,339.454773 
	C208.858276,337.881317 206.547882,335.655396 206.099884,333.350220 
	C206.004898,332.989075 206.079559,332.898499 206.079559,332.898499 
M191.667236,332.415741 
	C188.049042,331.328644 186.112808,328.577026 184.890610,323.988281 
	C184.092651,325.944183 183.585983,326.651825 183.548660,327.383423 
	C183.457275,329.174774 190.383804,335.524231 192.138931,335.096252 
	C194.129623,334.610779 193.232574,333.557343 191.667236,332.415741 
M192.914413,327.638092 
	C193.597336,325.464935 193.303116,323.591217 190.804993,323.046967 
	C189.368591,322.733978 188.706848,324.087555 188.821747,325.263275 
	C189.027664,327.370087 189.706207,329.259979 192.914413,327.638092 
z"/>
<path fill="#000000" opacity="1.000000" stroke="none" 
	d="
M256.304077,258.736084 
	C253.903519,257.944427 251.944962,257.003296 249.879623,256.502228 
	C245.918304,255.541168 245.511017,253.149307 246.618683,249.762970 
	C247.757904,246.280167 250.003296,245.602615 253.186493,246.772461 
	C254.891769,247.399185 256.596039,248.034241 258.325653,248.587845 
	C261.000671,249.444077 263.392212,250.547394 262.921173,253.995834 
	C262.430939,257.584869 260.257446,259.118286 256.304077,258.736084 
z"/>
<path fill="#000000" opacity="1.000000" stroke="none" 
	d="
M378.594055,273.142944 
	C379.152313,269.101685 380.504059,266.514740 384.972900,266.997498 
	C392.054901,267.762573 395.056519,269.602142 395.411774,273.757874 
	C395.669739,276.775085 394.519684,278.750427 391.279633,278.376221 
	C386.664581,277.843201 381.066010,279.619751 378.594055,273.142944 
z"/>
<path fill="#000000" opacity="1.000000" stroke="none" 
	d="
M404.713013,270.696655 
	C407.588715,270.697906 410.087280,270.561462 412.545197,270.816589 
	C415.716217,271.145782 418.623688,272.317322 418.156799,276.222870 
	C417.593170,280.937378 415.182983,282.329498 410.541931,281.191711 
	C408.934479,280.797668 407.332794,280.294861 405.698486,280.116486 
	C403.511597,279.877747 401.565186,279.220184 401.498779,276.786194 
	C401.435089,274.453217 400.960297,271.607666 404.713013,270.696655 
z"/>
<path fill="#000000" opacity="1.000000" stroke="none" 
	d="
M228.255890,241.878448 
	C232.072540,241.772171 235.121902,242.948349 238.214310,244.179245 
	C241.223038,245.376846 241.716431,247.462906 240.838333,250.138657 
	C240.006210,252.674301 238.677856,254.670990 235.420395,253.681259 
	C233.214722,253.011108 230.908691,252.626801 228.764023,251.809158 
	C223.549347,249.821091 223.186386,245.545242 228.255890,241.878448 
z"/>
<path fill="#000000" opacity="1.000000" stroke="none" 
	d="
M363.416138,274.769958 
	C359.855652,273.891296 356.001740,273.788239 357.005127,268.796661 
	C357.563263,266.019928 358.969025,264.325775 362.187897,264.973083 
	C364.122986,265.362244 366.104736,265.584595 368.076477,265.712402 
	C371.975311,265.965088 373.899933,267.987946 373.356232,271.839447 
	C372.795990,275.807953 370.108734,276.320618 366.738007,275.370056 
	C365.791779,275.103210 364.788422,275.039001 363.416138,274.769958 
z"/>
<path fill="#000000" opacity="1.000000" stroke="none" 
	d="
M335.791687,270.088745 
	C334.024689,263.432037 335.925171,261.200989 342.033295,262.116028 
	C343.674835,262.361908 345.307800,262.680359 346.956116,262.862061 
	C350.225525,263.222534 351.825226,264.978516 351.249115,268.245514 
	C350.739990,271.132751 349.445648,273.320251 345.859497,272.489075 
	C342.626556,271.739838 339.380249,271.048157 335.791687,270.088745 
z"/>
<path fill="#000000" opacity="1.000000" stroke="none" 
	d="
M323.857269,269.636658 
	C321.047882,269.137299 318.619873,268.673218 316.201508,268.163391 
	C312.714996,267.428284 311.713531,265.343109 312.672150,261.969727 
	C313.708130,258.323914 316.152618,258.542389 318.899689,259.477386 
	C320.292114,259.951324 321.554108,260.657410 323.163239,260.392548 
	C325.947327,259.934357 328.331665,260.926056 328.785309,263.832886 
	C329.281921,267.015594 327.721832,269.243835 323.857269,269.636658 
z"/>
<path fill="#000000" opacity="1.000000" stroke="none" 
	d="
M281.095337,254.684204 
	C284.075958,255.614655 285.401733,257.181030 284.417816,260.015381 
	C283.482574,262.709656 281.725800,263.429993 278.966064,262.603882 
	C276.613220,261.899536 274.089752,261.780945 271.709747,261.147736 
	C268.240387,260.224731 267.587708,257.848175 268.546417,254.597809 
	C269.668365,250.793945 272.168915,252.162567 274.515381,252.810028 
	C276.587646,253.381836 278.648346,253.995514 281.095337,254.684204 
z"/>
<path fill="#000000" opacity="1.000000" stroke="none" 
	d="
M294.973694,265.247070 
	C291.992065,264.732727 289.611847,264.215881 290.301178,260.591034 
	C290.946930,257.195221 292.935242,256.376862 296.038971,256.970825 
	C298.303497,257.404175 300.594849,257.798767 302.890930,257.940308 
	C305.850800,258.122803 307.052032,259.492401 306.613434,262.414978 
	C306.228363,264.980957 305.318909,266.920837 302.204559,266.439117 
	C299.926025,266.086731 297.655701,265.681091 294.973694,265.247070 
z"/>
<path fill="#000000" opacity="1.000000" stroke="none" 
	d="
M218.312332,247.966827 
	C216.449448,249.647171 214.987030,248.811996 213.512604,247.992355 
	C212.221252,247.274490 210.917877,245.982819 209.616486,245.978653 
	C202.991287,245.957367 204.107803,242.077408 205.178726,238.028854 
	C215.206802,236.932007 220.138809,240.534332 218.312332,247.966827 
z"/>
<path fill="#000000" opacity="1.000000" stroke="none" 
	d="
M228.196655,434.871796 
	C226.527252,433.348022 225.461426,431.952911 226.336075,429.933533 
	C233.013840,429.380280 240.609528,434.092255 241.401657,440.061646 
	C236.857773,438.309784 232.684097,436.700684 228.196655,434.871796 
z"/>
<path fill="#000000" opacity="1.000000" stroke="none" 
	d="
M254.702728,444.433990 
	C250.755722,442.733978 245.943405,442.546631 245.788284,436.896973 
	C252.611450,436.706512 259.854126,440.643036 261.760468,445.609711 
	C259.329224,446.307373 257.246155,445.095581 254.702728,444.433990 
z"/>
<path fill="#000000" opacity="1.000000" stroke="none" 
	d="
M267.880005,447.429077 
	C267.279236,446.280701 266.494965,445.486694 267.462189,444.097107 
	C272.246063,444.598877 276.656616,446.597565 280.918610,448.998901 
	C282.121582,449.676697 283.113739,450.727631 282.538361,452.215881 
	C281.854401,453.984924 280.315094,453.391754 279.172028,452.876343 
	C275.453827,451.199860 271.308685,450.429443 267.880005,447.429077 
z"/>
<path fill="#000000" opacity="1.000000" stroke="none" 
	d="
M243.997772,128.011078 
	C245.556763,127.842789 247.275421,126.882416 248.375473,128.981293 
	C249.480652,131.089935 248.300491,132.419220 246.610992,133.988052 
	C244.507629,133.081955 242.220581,131.232956 239.805084,133.910690 
	C238.917480,134.894638 237.299545,134.699387 236.201752,133.586868 
	C235.449829,132.824844 235.112076,131.848801 235.593887,130.856934 
	C236.263046,129.479355 237.575928,129.123947 238.967346,129.284668 
	C240.614670,129.474930 242.272476,130.012619 243.828156,128.244781 
	C244.038330,127.982681 244.009384,127.999481 243.997772,128.011078 
z"/>
<path fill="#000000" opacity="1.000000" stroke="none" 
	d="
M138.557220,241.464752 
	C138.999268,238.939270 140.387146,239.586472 141.539078,240.298141 
	C144.086700,241.872086 146.062546,243.987534 147.394287,247.033035 
	C144.145569,248.815048 141.290466,247.582764 138.769455,246.304169 
	C136.897888,245.354950 138.310654,243.317642 138.557220,241.464752 
z"/>
<path fill="#000000" opacity="1.000000" stroke="none" 
	d="
M205.967346,333.034180 
	C204.416748,333.228424 202.940384,333.106293 201.565536,332.401825 
	C198.632065,330.898804 198.907928,328.383911 199.841553,325.962250 
	C200.832077,323.393005 202.924103,323.895264 204.833145,324.824310 
	C206.132370,325.456573 207.692642,325.800262 208.591217,327.699036 
	C207.362946,328.911102 202.333511,328.459412 205.950562,332.626617 
	C206.079559,332.898499 206.004898,332.989075 205.967346,333.034180 
z"/>
<path fill="#000000" opacity="1.000000" stroke="none" 
	d="
M248.379562,505.119690 
	C243.725037,503.806213 239.641998,501.971283 235.963058,498.300140 
	C241.507233,497.970825 247.421341,501.346436 248.379562,505.119690 
z"/>
<path fill="#000000" opacity="1.000000" stroke="none" 
	d="
M201.130096,138.935516 
	C200.969803,140.305740 200.733444,141.410339 200.406540,142.487488 
	C199.976700,143.903915 199.535477,145.378098 197.738800,145.608398 
	C196.881882,145.718231 196.019608,145.416977 195.663544,144.630539 
	C194.898575,142.940887 195.441742,141.320023 196.688309,140.171356 
	C197.833069,139.116562 198.784561,136.849106 201.130096,138.935516 
z"/>
<path fill="#000000" opacity="1.000000" stroke="none" 
	d="
M110.992195,266.987244 
	C111.787468,266.382690 112.616661,265.801788 113.684334,266.046173 
	C115.860329,266.544220 117.023445,268.029327 117.422623,270.145325 
	C117.629234,271.240601 117.250885,272.245483 116.085777,272.388763 
	C113.779900,272.672363 113.015945,270.976746 112.369644,269.187256 
	C112.149734,268.578369 111.737427,268.038971 111.191505,267.201416 
	C110.969986,266.934998 110.985008,266.970428 110.992195,266.987244 
z"/>
<path fill="#000000" opacity="1.000000" stroke="none" 
	d="
M280.998901,130.654755 
	C283.304993,132.327972 284.082458,134.039017 281.521088,135.766541 
	C280.281464,136.602600 278.887085,136.565109 278.213593,135.065033 
	C277.125824,132.642288 277.731995,130.921616 280.998901,130.654755 
z"/>
<path fill="#000000" opacity="1.000000" stroke="none" 
	d="
M229.668442,136.394623 
	C225.709396,135.813141 226.885162,133.619858 227.996506,131.759384 
	C228.808746,130.399643 230.292984,130.327332 231.316483,131.564819 
	C233.023636,133.628876 232.043655,135.165421 229.668442,136.394623 
z"/>
<path fill="#000000" opacity="1.000000" stroke="none" 
	d="
M272.333466,131.982666 
	C275.510193,132.533356 275.584320,134.254364 274.297211,136.251038 
	C273.398438,137.645325 271.821259,138.258209 270.568481,136.949585 
	C268.484619,134.772797 269.712585,133.173508 272.333466,131.982666 
z"/>
<path fill="#000000" opacity="1.000000" stroke="none" 
	d="
M260.838287,129.272766 
	C260.363922,126.603737 260.892395,124.763161 263.709564,125.245956 
	C265.328125,125.523331 266.357819,127.014450 265.506927,128.638031 
	C264.524536,130.512527 263.038208,131.998734 260.838287,129.272766 
z"/>
<path fill="#000000" opacity="1.000000" stroke="none" 
	d="
M249.468140,136.346359 
	C251.579239,138.656631 250.895081,140.219803 248.528625,141.018723 
	C247.078979,141.508148 245.730621,140.482758 245.519302,139.169495 
	C245.086899,136.482483 246.803528,135.808411 249.468140,136.346359 
z"/>
<path fill="#000000" opacity="1.000000" stroke="none" 
	d="
M161.731079,150.373779 
	C161.582550,151.167160 161.492752,151.649811 161.366379,152.122711 
	C160.961456,153.637939 160.969421,155.813660 158.533600,155.031784 
	C157.196808,154.602676 156.655106,152.830017 157.340698,151.723160 
	C158.238235,150.274170 159.186356,147.561554 161.731079,150.373779 
z"/>
<path fill="#000000" opacity="1.000000" stroke="none" 
	d="
M303.720581,178.235779 
	C300.643158,178.565842 299.712463,177.206696 300.489349,174.768021 
	C300.932465,173.376999 302.262543,172.553284 303.600037,173.367340 
	C305.620880,174.597336 305.953094,176.333145 303.720581,178.235779 
z"/>
<path fill="#000000" opacity="1.000000" stroke="none" 
	d="
M264.210510,133.607513 
	C266.924744,133.958145 267.827545,135.323441 266.600922,137.396881 
	C265.773346,138.795776 264.121552,139.422791 262.860840,137.953094 
	C261.467041,136.328293 261.441071,134.607208 264.210510,133.607513 
z"/>
<path fill="#000000" opacity="1.000000" stroke="none" 
	d="
M118.540817,253.444778 
	C118.288269,256.834015 116.667236,256.332550 115.142609,254.816071 
	C113.912537,253.592606 113.014015,252.005341 113.552483,249.856995 
	C116.074310,249.717926 117.377823,251.222397 118.540817,253.444778 
z"/>
<path fill="#000000" opacity="1.000000" stroke="none" 
	d="
M308.565552,174.024994 
	C309.711243,171.740982 311.239441,170.922791 312.901794,172.798813 
	C313.921143,173.949173 314.227936,175.693176 312.401886,176.615479 
	C310.153625,177.751053 308.974365,176.602554 308.565552,174.024994 
z"/>
<path fill="#000000" opacity="1.000000" stroke="none" 
	d="
M219.343979,133.892670 
	C221.400055,132.039932 222.958832,132.485825 223.810349,134.605774 
	C224.503143,136.330551 223.418930,137.713715 221.789078,137.848267 
	C219.312210,138.052734 218.890411,136.252319 219.343979,133.892670 
z"/>
<path fill="#000000" opacity="1.000000" stroke="none" 
	d="
M215.980438,137.361221 
	C215.129547,139.908768 213.768112,141.148056 211.647537,139.254700 
	C210.366318,138.110733 210.552628,136.451187 211.891190,135.401749 
	C213.945465,133.791214 215.128296,135.083054 215.980438,137.361221 
z"/>
<path fill="#000000" opacity="1.000000" stroke="none" 
	d="
M317.177032,173.602631 
	C316.909210,171.044907 317.738403,169.531616 320.125977,169.963028 
	C321.697266,170.246902 322.121521,171.933441 321.614471,173.139709 
	C320.741852,175.215820 319.131256,175.625732 317.177032,173.602631 
z"/>
<path fill="#000000" opacity="1.000000" stroke="none" 
	d="
M253.962082,136.972382 
	C255.109436,134.536499 256.648987,134.008408 258.269287,135.822342 
	C259.230042,136.897888 259.127136,138.456192 257.795319,139.302567 
	C255.620483,140.684662 254.438614,139.586533 253.962082,136.972382 
z"/>
<path fill="#000000" opacity="1.000000" stroke="none" 
	d="
M203.432465,141.211014 
	C202.588028,138.624725 203.590286,137.260452 205.825134,137.284988 
	C207.489044,137.303253 207.869202,138.864822 207.565338,140.247040 
	C207.015823,142.746689 205.581497,143.060059 203.432465,141.211014 
z"/>
<path fill="#000000" opacity="1.000000" stroke="none" 
	d="
M155.547592,156.287048 
	C155.951828,158.581085 155.266800,159.841751 152.917282,160.204651 
	C151.478378,158.549957 150.287399,156.611725 152.084946,154.659637 
	C153.518692,153.102631 154.740402,154.381287 155.547592,156.287048 
z"/>
<path fill="#000000" opacity="1.000000" stroke="none" 
	d="
M229.313446,141.995605 
	C229.101456,140.207764 229.296417,138.878571 231.117661,138.866287 
	C232.581192,138.856415 233.600861,139.699753 233.999939,141.125778 
	C234.299988,142.197998 233.889847,143.124008 232.957504,143.665298 
	C231.306992,144.623566 230.140717,144.030670 229.313446,141.995605 
z"/>
<path fill="#000000" opacity="1.000000" stroke="none" 
	d="
M264.272369,185.782379 
	C263.059204,187.837067 261.641144,188.886032 259.936462,186.945953 
	C258.944672,185.817184 259.242126,184.383408 260.565308,183.575302 
	C262.675323,182.286652 263.936981,183.074783 264.272369,185.782379 
z"/>
<path fill="#000000" opacity="1.000000" stroke="none" 
	d="
M297.120972,177.863556 
	C296.284363,180.935013 294.580750,180.978668 292.787048,179.328079 
	C291.687408,178.316177 291.835907,176.882034 293.175690,175.977234 
	C295.125824,174.660248 296.546509,175.030884 297.120972,177.863556 
z"/>
<path fill="#000000" opacity="1.000000" stroke="none" 
	d="
M117.383667,260.823914 
	C117.816307,262.548248 117.857002,263.888245 115.963890,263.967438 
	C114.668800,264.021637 113.971306,263.037384 113.547592,261.908844 
	C113.117393,260.763031 112.989380,259.542633 114.246132,258.928619 
	C115.783920,258.177277 116.635185,259.249023 117.383667,260.823914 
z"/>
<path fill="#000000" opacity="1.000000" stroke="none" 
	d="
M345.323151,167.061676 
	C342.680786,168.387436 341.610504,167.379501 341.643860,165.043503 
	C341.664734,163.578873 342.716278,162.326416 344.104401,162.652740 
	C346.317047,163.172882 346.475098,164.940933 345.323151,167.061676 
z"/>
<path fill="#000000" opacity="1.000000" stroke="none" 
	d="
M236.585663,155.861755 
	C233.807587,155.482056 233.366486,153.907501 234.345627,151.979431 
	C235.010361,150.670532 236.416077,150.142807 237.611832,151.325684 
	C239.276428,152.972351 238.777283,154.536575 236.585663,155.861755 
z"/>
<path fill="#000000" opacity="1.000000" stroke="none" 
	d="
M238.829926,142.296829 
	C237.091507,140.447800 236.971756,138.830963 239.156128,137.828705 
	C240.495651,137.214081 241.823410,137.743118 242.094971,139.363007 
	C242.464813,141.569031 241.561752,142.805923 238.829926,142.296829 
z"/>
<path fill="#000000" opacity="1.000000" stroke="none" 
	d="
M186.282837,158.322845 
	C183.859222,156.949768 183.763794,155.426193 185.695084,153.948990 
	C186.490540,153.340576 187.757828,153.093521 188.341949,154.175919 
	C189.393036,156.123596 188.985794,157.715820 186.282837,158.322845 
z"/>
<path fill="#000000" opacity="1.000000" stroke="none" 
	d="
M336.694458,165.493729 
	C338.613983,166.985016 339.375427,168.512909 337.151062,169.887238 
	C335.983490,170.608627 334.430450,170.572586 333.828796,169.050400 
	C332.927887,166.771149 334.315094,165.768173 336.694458,165.493729 
z"/>
<path fill="#000000" opacity="1.000000" stroke="none" 
	d="
M325.243561,170.824097 
	C325.720154,168.338913 327.031464,167.255676 329.053650,168.421585 
	C330.211945,169.089432 330.616394,170.703812 329.532562,171.823196 
	C328.007874,173.397903 326.410156,173.482819 325.243561,170.824097 
z"/>
<path fill="#000000" opacity="1.000000" stroke="none" 
	d="
M250.351807,150.827637 
	C249.835693,147.910202 251.311249,147.280701 253.392288,147.811707 
	C254.609589,148.122345 255.231354,149.548431 254.766129,150.563477 
	C253.804855,152.660843 252.192581,152.735794 250.351807,150.827637 
z"/>
<path fill="#000000" opacity="1.000000" stroke="none" 
	d="
M225.967407,154.925812 
	C226.615784,152.681580 227.726776,151.708603 229.558121,153.259796 
	C230.696091,154.223679 230.984726,155.666946 229.709305,156.673325 
	C227.906311,158.095947 226.717117,157.089645 225.967407,154.925812 
z"/>
<path fill="#000000" opacity="1.000000" stroke="none" 
	d="
M286.862488,177.491531 
	C288.489929,178.750320 289.648041,180.140244 287.850189,181.632187 
	C286.760315,182.536591 285.193542,182.448578 284.447998,180.976959 
	C283.407654,178.923492 284.629822,177.928024 286.862488,177.491531 
z"/>
<path fill="#000000" opacity="1.000000" stroke="none" 
	d="
M116.434189,246.785309 
	C115.637726,245.185928 114.724480,243.768188 116.565613,242.733032 
	C117.383080,242.273392 118.191315,242.747086 118.693489,243.426529 
	C119.551781,244.587723 120.686317,245.861389 119.604156,247.350784 
	C118.657440,248.653748 117.602394,247.709320 116.434189,246.785309 
z"/>
<path fill="#000000" opacity="1.000000" stroke="none" 
	d="
M201.377640,152.312378 
	C198.352921,152.688278 198.328461,150.925110 198.776581,149.024231 
	C199.024261,147.973663 200.060486,147.273727 201.007629,147.688889 
	C203.396469,148.735916 202.306900,150.507690 201.377640,152.312378 
z"/>
<path fill="#000000" opacity="1.000000" stroke="none" 
	d="
M280.197937,180.611481 
	C280.693298,183.111572 279.616943,184.024277 277.597961,183.571259 
	C276.350555,183.291351 275.735504,182.106369 276.328430,180.902161 
	C277.202423,179.127090 278.492035,178.501602 280.197937,180.611481 
z"/>
</svg>